<?xml version="1.0" encoding="UTF-8"?>
<svg version="1.1" xmlns="http://www.w3.org/2000/svg" width="1563" height="1563">
<path d="M0 0 C0.66 0 1.32 0 2 0 C2.35602295 0.66717041 2.7120459 1.33434082 3.07885742 2.02172852 C9.51389434 14.06542546 15.98619615 26.07439037 22.75 37.9375 C27.12048388 45.60552184 31.33517537 53.33229969 35.40991211 61.16113281 C38.5217715 67.12935818 41.75813224 73.01857967 45.04638672 78.89111328 C48.53016152 85.12375165 51.92608189 91.40153061 55.3125 97.6875 C59.59863605 105.63568147 63.96848787 113.52825404 68.4375 121.375 C73.69594482 130.60924526 78.75779454 139.93792135 83.76928711 149.30810547 C87.58683609 156.42693243 91.49975194 163.48237328 95.5 170.5 C100.8075416 179.81271348 105.92228191 189.2189342 110.98486328 198.66674805 C115.00928462 206.17373393 119.10210587 213.63717496 123.25390625 221.07421875 C126.79283645 227.41374119 130.30336744 233.76895359 133.8125 240.125 C134.15679047 240.74841278 134.50108093 241.37182556 134.85580444 242.01412964 C139.50996849 250.44455244 144.11867879 258.8979353 148.6875 267.375 C153.32981597 275.98274591 158.08941217 284.51603923 162.92138672 293.01855469 C167.27512894 300.68974227 171.55724111 308.39893687 175.8125 316.125 C176.31506821 317.03745987 176.31506821 317.03745987 176.82778931 317.96835327 C178.53646011 321.07128308 180.24424456 324.17469968 181.95166016 327.27832031 C184.96397496 332.75294509 187.98386717 338.22338851 191.0032959 343.6940918 C192.66780797 346.7099879 194.33197386 349.72607498 195.99609375 352.7421875 C196.3259024 353.33992981 196.65571106 353.93767212 196.99551392 354.55352783 C199.00628556 358.19808595 201.01620089 361.84311491 203.02548218 365.48849487 C210.08338641 378.29341255 217.15156829 391.09249485 224.25 403.875 C224.87011963 404.99213379 225.49023926 406.10926758 226.12915039 407.26025391 C226.71043701 408.30616699 227.29172363 409.35208008 227.890625 410.4296875 C228.42913086 411.39994873 228.96763672 412.37020996 229.52246094 413.36987305 C230.78843995 415.62340773 232.08937007 417.85031601 233.40625 420.07421875 C235.03662013 423.06722666 235.40547088 424.65486523 235 428 C234.56429687 427.62488281 234.12859375 427.24976563 233.6796875 426.86328125 C230.7665211 424.35997592 227.84850112 421.86895664 224.875 419.4375 C222.08554086 417.07252377 219.55568274 414.61511723 217 412 C212.27522504 407.18436399 207.51419709 402.51121686 202.3984375 398.11328125 C195.03670929 391.62680737 187.97176581 384.79454843 180.82421875 378.07421875 C174.48015135 372.11206346 168.12718798 366.17348234 161.62890625 360.37890625 C158.17271394 357.25138601 154.77574226 354.06257257 151.375 350.875 C146.32914786 346.15226597 141.25908506 341.4856902 136 337 C134.9789719 336.12522728 133.95815929 335.25020301 132.9375 334.375 C131.170345 332.85986411 129.40273742 331.34527609 127.63354492 329.83251953 C123.79741744 326.55051631 119.98168002 323.24629557 116.17651367 319.9284668 C110.79306192 315.23815749 105.37965645 310.6262841 99.76953125 306.20703125 C96.07956926 303.26651147 92.44875174 300.25651207 88.8125 297.25 C77.35476662 287.79288342 65.77851411 278.5051481 53.96289062 269.49755859 C51.65528409 267.73700405 49.35121302 265.97186156 47.046875 264.20703125 C37.40871293 256.83408769 27.74184159 249.51050932 17.91601562 242.38916016 C15.82180904 240.87080701 13.73130888 239.34741823 11.640625 237.82421875 C10.11480598 236.71583926 8.58876762 235.60776166 7.0625 234.5 C6.39581299 234.01442627 5.72912598 233.52885254 5.04223633 233.02856445 C-8.54919708 223.19533795 -22.52914281 213.88841741 -36.42504883 204.49414062 C-38.25888124 203.2533257 -40.09157495 202.0108261 -41.9230957 200.76660156 C-54.28914616 192.36685303 -66.8033188 184.28623666 -79.56243896 176.49653625 C-83.03476138 174.36471009 -86.48612412 172.19990628 -89.93807983 170.03530884 C-107.81716377 158.82574005 -126.19181349 148.39524242 -144.70019531 138.26318359 C-147.12574134 136.9309357 -149.54314425 135.58454194 -151.9609375 134.23828125 C-165.30413146 126.86104619 -178.8719696 119.95703145 -192.5 113.125 C-193.39533447 112.67474457 -194.29066895 112.22448914 -195.21313477 111.7605896 C-205.26255248 106.71296999 -215.34089888 101.84295234 -225.68969727 97.43774414 C-229.36849 95.83995593 -232.94147566 94.09315786 -236.49609375 92.23828125 C-310.37776046 55.70085793 -397.64241903 32.10812921 -480 30 C-480.7321875 29.97808594 -481.464375 29.95617187 -482.21875 29.93359375 C-548.13979395 28.19272111 -619.17373149 40.05155481 -681.11962891 62.48876953 C-683 63 -683 63 -687 63 C-678.97889345 46.95778691 -631.89731373 35.00539246 -616.28564453 29.74951172 C-572.76975376 15.44988265 -528.56786466 7.74401116 -482.75 7.8125 C-481.92718536 7.81343658 -481.10437073 7.81437317 -480.25662231 7.81533813 C-396.48370614 8.01985153 -313.80699057 30.24490023 -208.22753906 73.90209961 C-205.85979429 75.06910402 -203.45701597 76.03673395 -201 77 C-189.64843016 81.8912954 -178.49064722 87.14315602 -167.47753906 92.74951172 C-164.5113114 94.24665579 -161.53339743 95.71925435 -158.5546875 97.19140625 C-144.78030274 104.01008829 -131.17235621 111.05191077 -117.72607422 118.50244141 C-114.91304462 120.04776861 -112.08622888 121.56456652 -109.25390625 123.07421875 C-94.96921241 130.69839066 -81.00429775 138.78849103 -67.12695312 147.12353516 C-64.26075356 148.84352343 -61.38951405 150.5546202 -58.515625 152.26171875 C-47.21992747 158.98269662 -36.07201187 165.917133 -25 173 C-24.0114502 173.63010986 -24.0114502 173.63010986 -23.00292969 174.27294922 C4.85101908 192.04527262 32.21642492 210.62255654 58.9375 230.0546875 C61.4888661 231.90946351 64.04877967 233.75021851 66.625 235.5703125 C74.02867993 240.80201042 81.2661995 246.20826708 88.40454102 251.79882812 C89.08959717 252.33056641 89.77465332 252.86230469 90.48046875 253.41015625 C91.08785889 253.88590088 91.69524902 254.36164551 92.32104492 254.85180664 C94.11343655 256.19031249 94.11343655 256.19031249 97 257 C90.7865845 246.07046069 84.53293947 235.16599711 78.1875 224.3125 C71.37639865 212.66190709 64.62726324 200.97628014 57.89111328 189.28222656 C54.76319852 183.85340058 51.63141552 178.42680719 48.5 173 C47.24998121 170.83334417 45.99998122 168.6666775 44.75 166.5 C43.821875 164.89125 43.821875 164.89125 42.875 163.25 C37.25 153.50000001 37.25 153.50000001 35.3737793 150.24780273 C34.1279423 148.08840605 32.88201182 145.92906331 31.63598633 143.76977539 C28.44651047 138.24232403 25.25883115 132.71384879 22.07421875 127.18359375 C15.10677118 115.08813954 8.11025277 103.01214469 1 91 C-1.76763299 94.3047588 -3.98861759 97.55589704 -5.99609375 101.3671875 C-6.54861816 102.40705811 -7.10114258 103.44692871 -7.67041016 104.51831055 C-8.2535498 105.62601807 -8.83668945 106.73372559 -9.4375 107.875 C-10.68163791 110.21331424 -11.92713965 112.55081492 -13.17578125 114.88671875 C-13.49170227 115.47828262 -13.80762329 116.0698465 -14.13311768 116.67933655 C-19.24242793 126.21901864 -24.62998438 135.605445 -30 145 C-30.6202002 146.08595459 -30.6202002 146.08595459 -31.25292969 147.19384766 C-32.16818535 148.79614668 -33.08401323 150.39811882 -34 152 C-38.48794474 151.42297853 -41.54080566 149.68990827 -45.3671875 147.32421875 C-45.96500031 146.95778763 -46.56281311 146.59135651 -47.17874146 146.21382141 C-49.08189228 145.04535202 -50.97855171 143.86681006 -52.875 142.6875 C-54.76562279 141.52115647 -56.65753043 140.35692589 -58.54983521 139.1933136 C-60.27347514 138.13192524 -61.99400761 137.06549535 -63.71435547 135.9987793 C-67.10979089 133.93321014 -70.5409901 131.95667525 -74 130 C-73.4098777 125.68386137 -71.85940781 122.66906446 -69.640625 118.94140625 C-69.30011612 118.3647673 -68.95960724 117.78812836 -68.60877991 117.1940155 C-67.49582076 115.31281851 -66.37291011 113.43777087 -65.25 111.5625 C-64.47088496 110.2487952 -63.69249023 108.93466295 -62.91479492 107.62011719 C-60.97334893 104.34186485 -59.02433983 101.06819826 -57.07196045 97.79644775 C-54.47919745 93.45135902 -51.89381741 89.10189614 -49.3125 84.75 C-48.79598877 83.88012451 -48.27947754 83.01024902 -47.74731445 82.11401367 C-43.69883901 75.26231103 -39.80467688 68.3303199 -35.9375 61.375 C-30.34186533 51.31224263 -24.51846132 41.41630066 -18.55029297 31.57128906 C-15.67023667 26.79447757 -12.83608576 21.99050334 -10 17.1875 C-9.18970337 15.81718628 -9.18970337 15.81718628 -8.36303711 14.41918945 C-5.53759412 9.63359818 -2.74304869 4.83330454 0 0 Z " fill="#FFFFFF" transform="translate(845,568)"/>
<path d="M0 0 C1.24101974 -0.01354271 1.24101974 -0.01354271 2.5071106 -0.02735901 C4.25714499 -0.0418624 6.00723362 -0.05074847 7.75732422 -0.05444336 C10.4289942 -0.06633363 13.09834923 -0.11550905 15.76953125 -0.16601562 C17.47134291 -0.17548093 19.17316874 -0.18271545 20.875 -0.1875 C22.06897903 -0.21679848 22.06897903 -0.21679848 23.28707886 -0.24668884 C27.48750186 -0.21268314 29.07913101 -0.02438796 32.46362305 2.70068359 C35.92058169 7.08267613 35.92058169 7.08267613 36.97265625 8.65625 C37.38040283 9.25856445 37.78814941 9.86087891 38.20825195 10.48144531 C38.85153442 11.44775879 38.85153442 11.44775879 39.5078125 12.43359375 C40.47825821 13.86780262 41.44965774 15.30136643 42.421875 16.734375 C42.93266602 17.48928223 43.44345703 18.24418945 43.96972656 19.02197266 C46.73586071 23.08172597 49.56042391 27.10033964 52.3828125 31.12109375 C53.57422505 32.82030808 54.76563124 34.51952687 55.95703125 36.21875 C56.55306152 37.06840332 57.1490918 37.91805664 57.76318359 38.79345703 C59.5614208 41.35841088 61.35731506 43.92498741 63.15234375 46.4921875 C68.60935391 54.29627461 74.07366651 62.0948594 79.5703125 69.87109375 C85.67106689 78.50197445 91.73129763 87.16098429 97.78808594 95.82275391 C100.71407984 100.00652437 103.64232271 104.18871999 106.5703125 108.37109375 C107.1389502 109.18352539 107.70758789 109.99595703 108.29345703 110.83300781 C111.35863876 115.21233322 114.42479237 119.59097458 117.4921875 123.96875 C118.13285156 124.88333984 118.77351562 125.79792969 119.43359375 126.74023438 C120.6650897 128.49823946 121.89684856 130.25606042 123.12890625 132.01367188 C123.95841797 133.19799805 123.95841797 133.19799805 124.8046875 134.40625 C125.29163086 135.10113525 125.77857422 135.79602051 126.28027344 136.51196289 C127.39540416 138.11902581 128.48528606 139.74355408 129.5703125 141.37109375 C129.74814209 131.66294207 129.91286453 121.95459404 130.0703125 112.24609375 C130.08233704 111.50979736 130.09436157 110.77350098 130.10675049 110.01489258 C130.40747698 91.49014089 130.61405776 72.96881088 130.6015625 54.44140625 C130.60105392 53.63500576 130.60054535 52.82860527 130.60002136 51.9977684 C130.59353749 44.13001963 130.57556411 36.26236294 130.54225922 28.39468193 C130.53061811 25.48654494 130.52250298 22.57840373 130.51487732 19.67025375 C130.50798411 17.67086856 130.49533745 15.67150581 130.48254395 13.67214966 C130.47764954 11.89117386 130.47764954 11.89117386 130.47265625 10.07421875 C130.46741943 9.03942383 130.46218262 8.00462891 130.45678711 6.93847656 C130.5703125 4.37109375 130.5703125 4.37109375 131.5703125 1.37109375 C134.8307069 -0.25910345 138.4249181 0.20801954 142.0078125 0.203125 C143.2616272 0.1981324 143.2616272 0.1981324 144.54077148 0.19303894 C146.30940195 0.18797268 148.07804198 0.18563052 149.84667969 0.18579102 C152.55940385 0.18360255 155.27172273 0.16543848 157.984375 0.14648438 C159.70051944 0.14355085 161.41666581 0.14156578 163.1328125 0.140625 C163.94741943 0.13343948 164.76202637 0.12625397 165.60131836 0.11885071 C171.34148604 0.14226729 171.34148604 0.14226729 173.5703125 2.37109375 C173.76817862 5.21221819 173.83949843 7.95598384 173.82427979 10.79833984 C173.82895976 12.12185739 173.82895976 12.12185739 173.83373427 13.47211266 C173.8417495 16.44631895 173.83537696 19.42032322 173.82910156 22.39453125 C173.83180986 24.5196342 173.83536988 26.64473621 173.83972168 28.76983643 C173.84886713 34.55481502 173.84529256 40.33972256 173.83896351 46.12470245 C173.83391464 52.16695859 173.83859185 58.20920848 173.84173584 64.25146484 C173.84537874 74.40007626 173.84056789 84.54865861 173.83105469 94.69726562 C173.82016953 106.44543729 173.82369488 118.19353954 173.8347075 129.94170952 C173.84377115 140.01219211 173.84507018 150.08265376 173.83983016 160.15313911 C173.83670537 166.17491926 173.83631501 172.19666675 173.84290314 178.21844482 C173.84866259 183.87858087 173.84470548 189.53862706 173.83311462 195.19875336 C173.83046051 197.28133749 173.83124584 199.36392913 173.83563995 201.44651031 C173.84106733 204.27905967 173.83429564 207.11131714 173.82427979 209.94384766 C173.83097195 211.19373002 173.83097195 211.19373002 173.83779931 212.46886253 C173.79861255 218.1427937 173.79861255 218.1427937 171.5703125 220.37109375 C168.68804996 220.60799463 165.90517991 220.72347702 163.01953125 220.7421875 C161.74309502 220.75573021 161.74309502 220.75573021 160.44087219 220.76954651 C158.63778206 220.78406949 156.83463898 220.79294082 155.03149414 220.79663086 C152.27854857 220.80850432 149.52786119 220.85764704 146.77539062 220.90820312 C145.02344844 220.91766994 143.27149248 220.92490374 141.51953125 220.9296875 C140.69853439 220.94921982 139.87753754 220.96875214 139.03166199 220.98887634 C134.79915005 220.95564011 133.10122342 220.79328065 129.68408203 218.07592773 C126.14754567 213.55048464 126.14754567 213.55048464 124.80078125 211.53515625 C124.31295166 210.81271729 123.82512207 210.09027832 123.32250977 209.34594727 C122.54798462 208.18276978 122.54798462 208.18276978 121.7578125 206.99609375 C120.60509086 205.28843827 119.45140155 203.58143571 118.296875 201.875 C117.69133789 200.97797363 117.08580078 200.08094727 116.46191406 199.15673828 C113.22423808 194.38881327 109.92840752 189.66158921 106.6328125 184.93359375 C105.95694092 183.96309082 105.28106934 182.99258789 104.5847168 181.99267578 C99.68722848 174.9641388 94.77583405 167.94537803 89.85961914 160.92993164 C84.73279354 153.61117608 79.63130009 146.27492838 74.53125 138.9375 C70.22249985 132.74055239 65.9018188 126.55215323 61.5703125 120.37109375 C56.39398164 112.98198593 51.22708622 105.58636559 46.0703125 98.18359375 C45.41160156 97.23935547 44.75289063 96.29511719 44.07421875 95.32226562 C43.44386719 94.41669922 42.81351562 93.51113281 42.1640625 92.578125 C41.61427734 91.78897705 41.06449219 90.9998291 40.49804688 90.18676758 C37.8186307 86.27317757 35.20122096 82.31745644 32.5703125 78.37109375 C32.2403125 107.74109375 31.9103125 137.11109375 31.5703125 167.37109375 C17.3803125 167.37109375 3.1903125 167.37109375 -11.4296875 167.37109375 C-11.49733996 145.89230447 -11.55263159 124.4136011 -11.58512402 102.93473244 C-11.60061005 92.96230894 -11.62173264 82.98995621 -11.65600586 73.01757812 C-11.68585518 64.32828773 -11.70524986 55.63904858 -11.71195298 46.94970834 C-11.71587285 42.34636811 -11.72512086 37.74317449 -11.74687767 33.13988113 C-11.76717238 28.81104833 -11.77353562 24.48242315 -11.76901054 20.15354729 C-11.7698389 18.56116929 -11.77584626 16.96878467 -11.78730392 15.37644768 C-11.80213886 13.20925327 -11.79867488 11.04285204 -11.79045105 8.87564087 C-11.79321643 7.66071772 -11.79598181 6.44579456 -11.79883099 5.19405556 C-11.67701364 4.26247816 -11.55519629 3.33090076 -11.4296875 2.37109375 C-7.60764408 -0.1769352 -4.43579551 0.02973353 0 0 Z " fill="#FFFFFF" transform="translate(452.4296875,682.62890625)"/>
<path d="M0 0 C5.69222473 -0.24838521 11.38125912 -0.42918022 17.07763672 -0.54931641 C19.01211515 -0.59941568 20.94621844 -0.66752126 22.87939453 -0.75439453 C38.88870017 -1.4554718 38.88870017 -1.4554718 43.91748047 2.01123047 C45.98855964 4.57363649 47.50260486 7.07131869 49 10 C49.87934488 11.27123358 50.77605352 12.53076089 51.6953125 13.7734375 C52.50887785 14.97147463 53.31869744 16.17206288 54.125 17.375 C55.06816741 18.7635938 56.01222119 20.15158585 56.95703125 21.5390625 C57.44896973 22.26254883 57.9409082 22.98603516 58.44775391 23.73144531 C61.20417127 27.75985521 64.00936773 31.75402067 66.8125 35.75 C67.40256836 36.59183838 67.99263672 37.43367676 68.60058594 38.30102539 C69.80364087 40.01709033 71.00692938 41.73299155 72.21044922 43.44873047 C80.84384836 55.75691887 89.45290813 68.08167988 98.03417969 80.42626953 C103.52230779 88.31893515 109.0295704 96.19802235 114.546875 104.0703125 C116.93597192 107.47921251 119.32089311 110.89098661 121.703125 114.3046875 C122.31784668 115.18487549 122.93256836 116.06506348 123.56591797 116.97192383 C124.72201508 118.62743617 125.87736325 120.28347195 127.03173828 121.94018555 C130.04841336 126.25746578 133.1082941 130.53955121 136.20947266 134.79663086 C136.92173004 135.77474228 137.63398743 136.7528537 138.36782837 137.76060486 C138.90644501 138.49960526 139.44506165 139.23860565 140 140 C140.00331015 139.29670405 140.00662029 138.59340811 140.01003075 137.86880016 C140.09119601 120.76835742 140.18326706 103.66800841 140.28752708 86.56769085 C140.33768221 78.29815718 140.38412474 70.02863357 140.421875 61.7590332 C140.4547815 54.55256133 140.4946052 47.34616686 140.54279006 40.13978034 C140.56806847 36.3228674 140.58984572 32.50600589 140.60334396 28.6890316 C140.61615224 25.09803693 140.63819306 21.50721853 140.66738319 17.9163208 C140.68080813 15.9667347 140.68438286 14.01708861 140.68769836 12.06745911 C140.69886185 10.91059601 140.71002533 9.75373291 140.7215271 8.56181335 C140.72705786 7.55429362 140.73258862 6.54677389 140.73828697 5.50872326 C141 3 141 3 143 0 C146.03905746 -0.27897038 148.87157297 -0.37167364 151.91015625 -0.328125 C152.79279648 -0.32625183 153.67543671 -0.32437866 154.58482361 -0.32244873 C156.45185113 -0.31572096 158.31886438 -0.30179213 160.18579102 -0.28125 C163.05433137 -0.25008874 165.92232281 -0.24028019 168.79101562 -0.234375 C170.60156925 -0.22520566 172.41211725 -0.21483011 174.22265625 -0.203125 C175.08617203 -0.19887512 175.94968781 -0.19462524 176.83937073 -0.19024658 C182.88285311 -0.11714689 182.88285311 -0.11714689 184 1 C184.10011946 3.79194541 184.13439282 6.55922648 184.12698364 9.35168457 C184.12854363 10.23796429 184.13010362 11.12424401 184.13171089 12.0373807 C184.13572485 15.03079636 184.13252972 18.02416201 184.12939453 21.01757812 C184.1307484 23.15400726 184.13252824 25.29043617 184.13470459 27.42686462 C184.13928068 33.24694066 184.13748864 39.06699906 184.1343255 44.88707542 C184.13180281 50.9631696 184.13413919 57.03926221 184.13571167 63.11535645 C184.13753363 73.32121046 184.13512636 83.52705724 184.13037109 93.73291016 C184.12492842 105.55093162 184.12669106 117.36893584 184.1321975 129.18695688 C184.13672788 139.31344962 184.13737955 149.43993715 184.13475883 159.56643057 C184.13319564 165.62339657 184.13300343 171.68035446 184.13629532 177.73731995 C184.13917294 183.43024571 184.13720035 189.12314913 184.13140106 194.81607246 C184.13007288 196.91197739 184.13046856 199.00788418 184.13266373 201.10378838 C184.13537295 203.95198991 184.13199691 206.80011861 184.12698364 209.64831543 C184.12921436 210.48905625 184.13144509 211.32979707 184.13374341 212.19601488 C184.11414983 217.88585017 184.11414983 217.88585017 183 219 C177.26836042 219.39013494 171.53537887 219.48533409 165.79199219 219.56982422 C163.85764586 219.60641296 161.92355 219.66091289 159.99023438 219.73388672 C144.06302813 220.32610806 144.06302813 220.32610806 139.39526367 217.32568359 C137.5485702 214.9834724 136.3044273 212.67873463 135 210 C133.81778442 208.2821345 132.60954693 206.5819514 131.37890625 204.8984375 C130.10424659 203.05903835 128.8322196 201.2178127 127.5625 199.375 C126.14720312 197.33068229 124.73183658 195.28641281 123.31640625 193.2421875 C122.59984863 192.20545898 121.88329102 191.16873047 121.14501953 190.10058594 C117.77328442 185.22680538 114.38625578 180.36369726 111 175.5 C109.66917999 173.58730278 108.33845108 171.67454218 107.0078125 169.76171875 C106.34813477 168.81345215 105.68845703 167.86518555 105.00878906 166.88818359 C102.98190891 163.97398911 100.95571805 161.05931645 98.9296875 158.14453125 C92.06561095 148.27082113 85.18979972 138.40564431 78.28857422 128.55786133 C73.2441515 121.35653764 68.22193894 114.13987286 63.20703125 106.91796875 C56.49690351 97.26053544 49.74396428 87.63423469 43 78 C42.67 107.37 42.34 136.74 42 167 C27.81 167 13.62 167 -1 167 C-1.02255082 145.52121265 -1.0409814 124.04243485 -1.05181217 102.56363869 C-1.05697417 92.59124961 -1.06401504 82.6188684 -1.07543945 72.64648438 C-1.08538923 63.9571944 -1.09185413 55.26791011 -1.09408849 46.57861459 C-1.0953951 41.97533169 -1.09847781 37.37206508 -1.10573006 32.76878738 C-1.11249488 28.44000334 -1.11461601 24.11124237 -1.11310768 19.78245354 C-1.1133838 18.19008573 -1.11538619 16.59771718 -1.11920547 15.00535393 C-1.12414993 12.83838956 -1.12299548 10.67151335 -1.12025452 8.50454712 C-1.12117631 7.28962397 -1.1220981 6.07470081 -1.12304783 4.82296181 C-1 2 -1 2 0 0 Z " fill="#FFFFFF" transform="translate(1045,682)"/>
<path d="M0 0 C0.76166977 0.00222061 1.52333954 0.00444122 2.30809021 0.00672913 C3.16890701 0.00680466 4.02972382 0.00688019 4.91662598 0.00695801 C5.8520372 0.01211929 6.78744843 0.01728058 7.75120544 0.02259827 C8.70422043 0.02401321 9.65723541 0.02542816 10.63912964 0.02688599 C13.69605085 0.032503 16.75289996 0.04505836 19.80979919 0.05775452 C21.87685543 0.06276733 23.94391281 0.06733061 26.01097107 0.07142639 C31.08977507 0.08247795 36.16852489 0.09975397 41.24729919 0.12025452 C45.75807978 9.65431848 49.64007715 19.41880593 53.53636169 29.21400452 C54.26385868 31.03691338 54.99162432 32.85971505 55.71963501 34.68241882 C57.28566873 38.60451119 58.85019363 42.52720043 60.41346741 46.45039368 C64.64054579 57.05860529 68.87548197 67.66368028 73.11058044 78.26869202 C73.55372023 79.37861385 73.99686001 80.48853569 74.45342827 81.63209152 C81.45010398 99.15438364 88.48269737 116.66199723 95.53562737 134.16169643 C96.7839967 137.25949183 98.03179469 140.35751726 99.27964783 143.45552063 C103.64570784 154.29417876 108.01345686 165.13213719 112.38986111 175.96662331 C114.19757022 180.44446045 116.00174756 184.92371442 117.80500221 189.40334702 C118.64677261 191.49218342 119.4900956 193.5803949 120.33505821 195.66794205 C121.49052743 198.52302084 122.64066511 201.3801911 123.78953552 204.2379303 C124.12840601 205.07144264 124.4672765 205.90495499 124.81641579 206.76372528 C125.27869103 207.91825825 125.27869103 207.91825825 125.75030518 209.09611511 C126.01712506 209.75717318 126.28394495 210.41823124 126.55885029 211.09932137 C127.24729919 213.12025452 127.24729919 213.12025452 128.24729919 218.12025452 C110.75729919 218.12025452 93.26729919 218.12025452 75.24729919 218.12025452 C72.7179228 212.42915762 70.3066762 206.84031327 68.16526794 201.01478577 C67.87854218 200.2422496 67.59181641 199.46971344 67.29640198 198.67376709 C66.33981814 196.09442691 65.38734136 193.51358972 64.43479919 190.93275452 C63.74457116 189.0693684 63.054051 187.20609047 62.36326599 185.34291077 C60.83584088 181.22186947 59.31008784 177.10021395 57.78538513 172.97816467 C55.04047232 165.55891644 52.28877508 158.14219101 49.53636169 150.72572327 C48.79322238 148.72321415 48.05009044 146.72070229 47.30695915 144.71819019 C46.80795722 143.37353236 46.3089503 142.02887637 45.80993843 140.68422222 C43.33525348 134.01564212 40.86191687 127.34656216 38.38864517 120.67745781 C33.6990284 108.03215191 29.00658377 95.38789991 24.30979919 82.74525452 C24.03817963 82.01411438 23.76656006 81.28297424 23.48670959 80.52967834 C22.07376385 76.72646606 20.66063997 72.92332002 19.24729919 69.12025452 C10.11572884 93.37093123 1.0631619 117.6508276 -7.95969772 141.9421196 C-8.81489153 144.24442191 -9.67022005 146.54667414 -10.52555847 148.84892273 C-15.87101462 163.23809698 -21.21473255 177.62779868 -26.50270081 192.03822327 C-26.84192062 192.96215881 -27.18114044 193.88609436 -27.53063965 194.83802795 C-29.02761753 198.91705566 -30.52128584 202.99724035 -32.00880432 207.07972717 C-32.50801554 208.44351733 -33.00727887 209.80728842 -33.50660706 211.17103577 C-33.92241028 212.31225891 -34.3382135 213.45348206 -34.76661682 214.62928772 C-35.75270081 217.12025452 -35.75270081 217.12025452 -36.75270081 218.12025452 C-38.37944858 218.21365885 -40.01024132 218.23770623 -41.6396637 218.23377991 C-42.68066727 218.23370438 -43.72167084 218.23362885 -44.79421997 218.23355103 C-45.92649521 218.22838974 -47.05877045 218.22322845 -48.22535706 218.21791077 C-49.95452614 218.21578835 -49.95452614 218.21578835 -51.71862793 218.21362305 C-55.41751144 218.20800457 -59.11633545 218.19544893 -62.81520081 218.18275452 C-65.31585098 218.1777419 -67.81650209 218.17317858 -70.31715393 218.16908264 C-76.46235669 218.15802914 -82.6075245 218.14127304 -88.75270081 218.12025452 C-88.02929683 213.16714104 -86.14542128 208.76166271 -84.28468323 204.15052795 C-83.92652023 203.25314911 -83.56835724 202.35577026 -83.19934082 201.43119812 C-82.00646844 198.44564873 -80.8073923 195.4626332 -79.60816956 192.47962952 C-78.76037249 190.36226855 -77.91291099 188.24477319 -77.06576538 186.12715149 C-75.27516317 181.65373867 -73.48171491 177.1814814 -71.68605042 172.71009827 C-69.44919323 167.13998818 -67.21722531 161.56793827 -64.98724651 155.99507141 C-55.42022583 132.08913384 -45.77102353 108.21848404 -36.01858139 84.38759613 C-28.57025809 66.18248189 -21.27283174 47.92177487 -14.06520081 29.62025452 C-12.170611 24.81064014 -10.27410911 20.00179357 -8.37335777 15.1946106 C-7.63497353 13.32460174 -6.89976562 11.45333968 -6.16464233 9.58204651 C-5.51080818 7.92743408 -5.51080818 7.92743408 -4.84376526 6.23939514 C-4.46218765 5.27022156 -4.08061005 4.30104797 -3.68746948 3.30250549 C-2.34165936 0.16066354 -2.34165936 0.16066354 0 0 Z " fill="#FFFFFF" transform="translate(292.75270080566406,685.8797454833984)"/>
<path d="M0 0 C4.17042642 0.88477244 7.21295889 2.93199808 10.6875 5.3125 C11.33380371 5.74892822 11.98010742 6.18535645 12.64599609 6.63500977 C18.58149884 10.66403866 24.44104197 14.80299546 30.27612305 18.97583008 C33.774936 21.47092289 37.26806302 23.85812956 41 26 C40.33229677 29.28886398 39.11810952 31.89084451 37.515625 34.83203125 C36.99943604 35.78327881 36.48324707 36.73452637 35.95141602 37.71459961 C35.38994873 38.73690674 34.82848145 39.75921387 34.25 40.8125 C33.37589478 42.41460327 33.37589478 42.41460327 32.48413086 44.04907227 C27.5133796 53.1305994 22.43331641 62.1486775 17.31640625 71.1484375 C15.03471315 75.16427157 12.77345044 79.19071687 10.52734375 83.2265625 C9.93816162 84.28431885 9.34897949 85.3420752 8.74194336 86.43188477 C7.64546068 88.40248005 6.55093871 90.37416886 5.45922852 92.34741211 C4.35878673 94.32291624 3.22194189 96.2784037 2.05737305 98.21679688 C0.30160711 101.25057878 -0.96941204 104.37278093 -2.26635742 107.62695312 C-4.96896967 113.83363936 -7.68121254 119.63362642 -13 124 C-21.9540331 127.30803298 -31.88091888 126.1897749 -41.24279785 125.51062012 C-44.71292517 125.28323519 -48.18664267 125.18462893 -51.66210938 125.07421875 C-58.45014285 124.84001951 -65.22403288 124.46604919 -72 124 C-70.72298004 120.75083824 -69.37506521 117.72043135 -67.63671875 114.69140625 C-67.16919189 113.87414062 -66.70166504 113.056875 -66.2199707 112.21484375 C-65.71425537 111.33957031 -65.20854004 110.46429687 -64.6875 109.5625 C-64.15406982 108.634375 -63.62063965 107.70625 -63.07104492 106.75 C-58.29100744 98.45557794 -53.42257772 90.21423591 -48.5390625 81.98046875 C-44.92698123 75.88623406 -41.34672954 69.77352531 -37.76849365 63.65939331 C-25.30462138 42.36468702 -12.72670137 21.13885815 0 0 Z " fill="#FFFFFF" transform="translate(721,780)"/>
<path d="M0 0 C14.19 0 28.38 0 43 0 C43.04510598 17.95842668 43.0819653 35.9168052 43.10362434 53.87527275 C43.11394725 62.21325581 43.1280269 70.55120124 43.15087891 78.88916016 C43.1707818 86.15453208 43.18370905 93.41987677 43.18817699 100.6852752 C43.19078965 104.53405194 43.19695144 108.38275072 43.21146011 112.23150253 C43.22499513 115.85115932 43.22923097 119.47070574 43.22621536 123.09038544 C43.22703134 125.05810449 43.23781427 127.02581142 43.24884033 128.99349976 C43.246091 130.15740234 43.24334167 131.32130493 43.24050903 132.52047729 C43.24235262 133.53629316 43.24419621 134.55210903 43.24609566 135.5987072 C43 138 43 138 41 140 C37.98691049 140.17546482 35.06689546 140.23127445 32.0546875 140.1953125 C30.72716965 140.19106766 30.72716965 140.19106766 29.37283325 140.18673706 C26.54008588 140.1755224 23.70765216 140.1504157 20.875 140.125 C18.95703581 140.11497185 17.03906667 140.10584572 15.12109375 140.09765625 C10.41394124 140.07557889 5.70702384 140.04104045 1 140 C-0.31035128 137.37929744 -0.12291863 135.45632569 -0.12025452 132.52047729 C-0.12162918 131.35657471 -0.12300385 130.19267212 -0.12442017 128.99349976 C-0.12082489 127.71028839 -0.11722961 126.42707703 -0.11352539 125.10498047 C-0.11324343 123.74509686 -0.11340143 122.38521311 -0.1139679 121.02532959 C-0.11425552 117.3272056 -0.10836435 113.62911385 -0.10139394 109.93099737 C-0.09515468 106.0685934 -0.09455615 102.20618875 -0.09336853 98.34378052 C-0.09025691 91.02690113 -0.08204579 83.71003663 -0.07201904 76.3931638 C-0.06085267 68.0643783 -0.05534613 59.7355921 -0.05032361 51.40680099 C-0.03986304 34.27119056 -0.02151965 17.13560065 0 0 Z " fill="#FFFFFF" transform="translate(1291,761)"/>
<path d="M0 0 C16.91533159 -0.07001106 33.83061811 -0.12294929 50.74606133 -0.15543652 C58.59979972 -0.17092032 66.45344821 -0.19203858 74.30712891 -0.22631836 C81.15059948 -0.25617459 87.99400495 -0.27556399 94.83753884 -0.28226548 C98.4627978 -0.2861842 102.08787052 -0.29542472 105.71306992 -0.31719017 C109.75524996 -0.34126337 113.79710404 -0.34197244 117.83935547 -0.34057617 C119.65196365 -0.35675491 119.65196365 -0.35675491 121.50119019 -0.3732605 C123.14607422 -0.36707451 123.14607422 -0.36707451 124.82418823 -0.36076355 C125.78100935 -0.36352893 126.73783047 -0.36629431 127.72364616 -0.36914349 C128.47484293 -0.24732614 129.2260397 -0.12550879 130 0 C132.49095696 3.73643544 132.25791662 5.72544735 132.265625 10.1875 C132.26753845 10.88641357 132.2694519 11.58532715 132.27142334 12.30541992 C132.27278283 13.78141643 132.26910282 15.25742498 132.26074219 16.73339844 C132.25003882 18.99180984 132.2606449 21.24942582 132.2734375 23.5078125 C132.27211586 24.94271009 132.26955338 26.37760718 132.265625 27.8125 C132.26336914 29.11832031 132.26111328 30.42414062 132.25878906 31.76953125 C132 35 132 35 130 38 C127.72364616 38.36914349 127.72364616 38.36914349 124.82418823 38.36076355 C123.72759888 38.36488754 122.63100952 38.36901154 121.50119019 38.3732605 C120.29278473 38.36247467 119.08437927 38.35168884 117.83935547 38.34057617 C116.57109924 38.34101425 115.30284302 38.34145233 113.99615479 38.34190369 C110.51278655 38.34276647 107.02972654 38.32509529 103.54643011 38.30418181 C99.90825801 38.28546198 96.27007929 38.28366829 92.63186646 38.28010559 C85.73991747 38.27077127 78.8481108 38.24613886 71.95622456 38.21605712 C64.11112382 38.18255614 56.26601639 38.16603795 48.42086196 38.15097082 C32.28049125 38.11959041 16.14026377 38.06680312 0 38 C-1.52348035 34.95303929 -1.14211557 31.77919939 -1.1328125 28.4375 C-1.13376923 27.69040771 -1.13472595 26.94331543 -1.13571167 26.17358398 C-1.13639249 24.59326086 -1.13454503 23.01293494 -1.13037109 21.43261719 C-1.12502142 19.0097019 -1.13031935 16.586972 -1.13671875 14.1640625 C-1.13605795 12.63020792 -1.13477675 11.09635346 -1.1328125 9.5625 C-1.13483673 8.83538818 -1.13686096 8.10827637 -1.13894653 7.35913086 C-1.1149618 2.22992361 -1.1149618 2.22992361 0 0 Z " fill="#FFFFFF" transform="translate(1247,682)"/>
<path d="M0 0 C254.76 0 509.52 0 772 0 C772 1.32 772 2.64 772 4 C517.24 4 262.48 4 0 4 C0 2.68 0 1.36 0 0 Z " fill="#FFFFFF" transform="translate(203,968)"/>
<path d="M0 0 C14.19 0 28.38 0 43 0 C43 8.25 43 16.5 43 25 C28.81 25 14.62 25 0 25 C0 16.75 0 8.5 0 0 Z " fill="#FF9933" transform="translate(1045,875)"/>
<path d="M0 0 C13.86 0 27.72 0 42 0 C42 8.25 42 16.5 42 25 C28.14 25 14.28 25 0 25 C0 16.75 0 8.5 0 0 Z " fill="#FF9933" transform="translate(441,875)"/>
<path d="M0 0 C14.19 0 28.38 0 43 0 C43 2.31 43 4.62 43 7 C31.12 7 19.24 7 7 7 C7 9.97 7 12.94 7 16 C17.56 16 28.12 16 39 16 C39 18.31 39 20.62 39 23 C28.44 23 17.88 23 7 23 C7 25.97 7 28.94 7 32 C18.88 32 30.76 32 43 32 C43 34.31 43 36.62 43 39 C28.81 39 14.62 39 0 39 C0 26.13 0 13.26 0 0 Z " fill="#FFFFFF" transform="translate(1193,947)"/>
<path d="M0 0 C1.10214844 -0.01160156 2.20429687 -0.02320313 3.33984375 -0.03515625 C10.22884555 -0.01034592 16.17375954 0.15963422 21.375 5.1875 C22.76504953 7.89037408 23.1585519 10.37025675 23.5 13.375 C20.3125 13.6875 20.3125 13.6875 16.5 13.375 C15.83484375 12.55515625 15.1696875 11.7353125 14.484375 10.890625 C9.95166625 7.06986003 5.67760394 7.68050258 -0.0625 7.8125 C-1.10341797 7.80154297 -2.14433594 7.79058594 -3.21679688 7.77929688 C-8.91146841 7.64051228 -8.91146841 7.64051228 -13.79907227 10.17382812 C-16.29266349 13.40078643 -16.00838633 16.53770484 -15.875 20.4375 C-15.87371094 21.15744141 -15.87242188 21.87738281 -15.87109375 22.61914062 C-15.80827835 26.37759522 -15.62799008 28.18301488 -13.5 31.375 C-10.68725248 31.79264382 -10.68725248 31.79264382 -7.3984375 31.66796875 C-6.18671875 31.65830078 -4.975 31.64863281 -3.7265625 31.63867188 C-2.45554687 31.61353516 -1.18453125 31.58839844 0.125 31.5625 C1.40375 31.54896484 2.6825 31.53542969 4 31.52148438 C7.16708282 31.48603196 10.33333541 31.43661441 13.5 31.375 C14.49 29.395 15.48 27.415 16.5 25.375 C10.89 25.375 5.28 25.375 -0.5 25.375 C-0.5 23.065 -0.5 20.755 -0.5 18.375 C2.93734063 18.28796177 6.37439837 18.23459728 9.8125 18.1875 C10.78896484 18.16236328 11.76542969 18.13722656 12.77148438 18.11132812 C13.70927734 18.10166016 14.64707031 18.09199219 15.61328125 18.08203125 C16.47735596 18.0663208 17.34143066 18.05061035 18.23168945 18.03442383 C20.5 18.375 20.5 18.375 22.28198242 19.6550293 C24.38226982 22.62085907 23.97714399 25.93041256 23.5 29.375 C21.77201477 34.10422275 19.69099468 36.62185779 15.5 39.375 C12.16601562 39.87670898 12.16601562 39.87670898 8.40625 39.87109375 C7.73710571 39.87254898 7.06796143 39.87400421 6.37854004 39.87550354 C4.96992621 39.87385048 3.56129321 39.86235552 2.15283203 39.84155273 C0.0060495 39.81258164 -2.13826189 39.82095651 -4.28515625 39.83398438 C-15.97867739 39.78088315 -15.97867739 39.78088315 -20.5 36.375 C-24.03910555 31.28705175 -23.98606314 26.41076683 -23.9375 20.4375 C-23.95748047 19.56931641 -23.97746094 18.70113281 -23.99804688 17.80664062 C-23.99353236 11.83393644 -23.23660371 8.11691362 -19.5 3.375 C-13.44401562 -0.52951624 -7.02612737 -0.07395924 0 0 Z " fill="#FFFFFF" transform="translate(1280.5,946.625)"/>
<path d="M0 0 C2.55908203 0.51049805 2.55908203 0.51049805 4.45263672 2.50732422 C5.03948242 3.43005127 5.62632813 4.35277832 6.23095703 5.3034668 C6.89160156 6.32102051 7.55224609 7.33857422 8.23291016 8.38696289 C8.91804688 9.47960449 9.60318359 10.57224609 10.30908203 11.69799805 C11.73001181 13.90303452 13.1518806 16.10746618 14.57470703 18.3112793 C15.25726562 19.37942871 15.93982422 20.44757812 16.64306641 21.5480957 C19.67560734 26.23678731 22.9068465 30.77322818 26.15283203 35.31518555 C27.55908203 37.51049805 27.55908203 37.51049805 27.55908203 39.51049805 C24.4848502 39.8652171 21.61899675 40.03716151 18.55908203 39.51049805 C14.55908203 35.02269317 14.55908203 35.02269317 14.55908203 31.51049805 C4.98908203 31.51049805 -4.58091797 31.51049805 -14.44091797 31.51049805 C-15.43091797 33.98549805 -15.43091797 33.98549805 -16.44091797 36.51049805 C-17.56591797 38.32299805 -17.56591797 38.32299805 -19.44091797 39.51049805 C-22.15913448 39.75809797 -24.70040485 39.64527738 -27.44091797 39.51049805 C-25.87084779 34.8796731 -23.36536864 31.27217068 -20.56591797 27.32299805 C-17.35386205 22.75866767 -14.20290814 18.17952352 -11.22216797 13.4597168 C-10.69478027 12.63431396 -10.16739258 11.80891113 -9.62402344 10.95849609 C-8.59873526 9.34762732 -7.58689592 7.72810593 -6.58984375 6.09960938 C-6.12046387 5.36895264 -5.65108398 4.6382959 -5.16748047 3.88549805 C-4.76094238 3.23323242 -4.3544043 2.5809668 -3.93554688 1.90893555 C-2.44091797 0.51049805 -2.44091797 0.51049805 0 0 Z M-0.44091797 10.51049805 C-1.83622326 12.43973623 -3.18217687 14.40480151 -4.50341797 16.38549805 C-5.23689453 17.47604492 -5.97037109 18.5665918 -6.72607422 19.69018555 C-8.61409594 22.24519216 -8.61409594 22.24519216 -8.44091797 24.51049805 C-2.83091797 24.51049805 2.77908203 24.51049805 8.55908203 24.51049805 C7.04045022 20.71391852 5.72894716 18.00540878 3.49658203 14.69799805 C2.96935547 13.90780273 2.44212891 13.11760742 1.89892578 12.3034668 C1.23570313 11.41594727 1.23570313 11.41594727 0.55908203 10.51049805 C0.22908203 10.51049805 -0.10091797 10.51049805 -0.44091797 10.51049805 Z " fill="#FFFFFF" transform="translate(1349.44091796875,946.489501953125)"/>
<path d="M0 0 C2.93185712 -0.30404444 5.14238138 -0.51422443 8 0 C10.16751739 2.10048077 11.40732627 3.621259 12.9375 6.125 C13.34790527 6.74648926 13.75831055 7.36797852 14.18115234 8.00830078 C15.4809201 9.98953882 16.74019795 11.99316757 18 14 C18.87634953 15.3506207 19.75523063 16.6996024 20.63671875 18.046875 C22.78760735 21.34631243 24.90254508 24.66636392 27 28 C30.65398309 24.6575316 33.19640078 20.93030057 35.875 16.8125 C36.5390686 15.81754517 36.5390686 15.81754517 37.21655273 14.80249023 C39.13731541 11.91519556 40.97509399 9.0445625 42.66796875 6.015625 C43.98062951 3.70651868 45.05776754 1.81275029 47 0 C50.13649954 -0.71543295 52.8494119 -0.56710586 56 0 C54.34282721 3.56517251 52.25543578 6.74617752 50.078125 10.015625 C49.69565613 10.59028503 49.31318726 11.16494507 48.91912842 11.75701904 C48.10998081 12.9714193 47.29967306 14.18504726 46.48828125 15.39794922 C45.26479102 17.22787763 44.04620344 19.06099745 42.828125 20.89453125 C40.57523949 24.27904306 38.28954216 27.64018607 36 31 C35.42572266 31.87205078 34.85144531 32.74410156 34.25976562 33.64257812 C33.50469727 34.73989258 33.50469727 34.73989258 32.734375 35.859375 C32.31897461 36.47780273 31.90357422 37.09623047 31.47558594 37.73339844 C30 39 30 39 27.47924805 39.36889648 C25 39 25 39 22.59765625 36.23828125 C21.7349552 34.94125484 20.89120918 33.63150406 20.0625 32.3125 C19.60447998 31.61366699 19.14645996 30.91483398 18.67456055 30.19482422 C17.66409492 28.65271989 16.66028761 27.10623839 15.66210938 25.55615234 C13.86462078 22.79180076 12.02325977 20.0605581 10.171875 17.33203125 C8.88515703 15.42986311 7.59869553 13.52752144 6.3125 11.625 C5.68802979 10.70372314 5.06355957 9.78244629 4.42016602 8.83325195 C3.84451904 7.97304443 3.26887207 7.11283691 2.67578125 6.2265625 C2.15927002 5.45908691 1.64275879 4.69161133 1.1105957 3.90087891 C0 2 0 2 0 0 Z " fill="#FFFFFF" transform="translate(1118,947)"/>
<path d="" fill="#FFFFFF" transform="translate(0,0)"/>
<path d="" fill="#FFFFFF" transform="translate(0,0)"/>
<path d="" fill="#FFFFFF" transform="translate(0,0)"/>
<path d="" fill="#FFFFFF" transform="translate(0,0)"/>
<path d="" fill="#FFFFFF" transform="translate(0,0)"/>
<path d="" fill="#FFFFFF" transform="translate(0,0)"/>
<path d="" fill="#FFFFFF" transform="translate(0,0)"/>
<path d="" fill="#FFFFFF" transform="translate(0,0)"/>
<path d="" fill="#FFFFFF" transform="translate(0,0)"/>
<path d="" fill="#FFFFFF" transform="translate(0,0)"/>
<path d="" fill="#FFFFFF" transform="translate(0,0)"/>
<path d="" fill="#FFFFFF" transform="translate(0,0)"/>
</svg>
