<svg xmlns="http://www.w3.org/2000/svg" version="1.1" viewBox="330.8 386.74 901.12 788.26">
<path d="M0 0 C2.55397129 1.23579256 2.72536218 2.38381463 3.9375 4.9375 C5.69935931 7.95842387 7.48924572 10.96171793 9.28125 13.96484375 C10.74107346 16.58495143 11.83868881 19.15613419 12.9375 21.9375 C13.68 22.68 13.68 22.68 14.4375 23.4375 C16.37878468 25.37878468 16.98048771 27.38546724 17.9375 29.9375 C18.5975 30.9275 19.2575 31.9175 19.9375 32.9375 C21.28272404 35.24399872 22.61592409 37.55505968 23.9375 39.875 C24.29328125 40.49568359 24.6490625 41.11636719 25.015625 41.75585938 C26.74148934 44.77934187 28.40759813 47.8105953 29.9375 50.9375 C32.38610573 55.57743043 34.96274092 60.05086567 37.9375 64.375 C41.09119256 69.01658854 43.51060924 73.88891788 45.9375 78.9375 C46.7074165 80.41714409 47.47817695 81.89634952 48.25 83.375 C49.9375 86.9375 49.9375 86.9375 49.9375 89.9375 C51.2575 90.5975 52.5775 91.2575 53.9375 91.9375 C53.9375 92.9275 53.9375 93.9175 53.9375 94.9375 C54.9275 95.5975 55.9175 96.2575 56.9375 96.9375 C58.21875 99.109375 58.21875 99.109375 59.4375 101.6875 C59.86804688 102.58339844 60.29859375 103.47929687 60.7421875 104.40234375 C61.13664062 105.23894531 61.53109375 106.07554687 61.9375 106.9375 C63.79309058 110.72005003 65.75667062 114.33439059 67.9375 117.9375 C69.1875 120.125 69.1875 120.125 69.9375 121.9375 C69.6075 122.5975 69.2775 123.2575 68.9375 123.9375 C69.9275 123.9375 70.9175 123.9375 71.9375 123.9375 C72.370625 125.608125 72.370625 125.608125 72.8125 127.3125 C73.62991329 130.94041092 73.62991329 130.94041092 75.9375 132.9375 C76.0625 136.5625 76.0625 136.5625 75.9375 139.9375 C76.5975 139.9375 77.2575 139.9375 77.9375 139.9375 C80.70262947 149.33894019 82.09010664 158.41717103 82.10546875 168.19921875 C82.10879715 168.95290237 82.11212555 169.706586 82.11555481 170.48310852 C82.12057845 172.06205644 82.12296456 173.6410148 82.12280273 175.2199707 C82.12500388 177.62924497 82.14324735 180.03807119 82.16210938 182.44726562 C82.1650414 183.98958178 82.16702747 185.53190009 82.16796875 187.07421875 C82.17515427 187.78889816 82.18233978 188.50357758 82.18974304 189.23991394 C82.17132748 193.27738354 81.64380718 196.28538215 79.9375 199.9375 C79.59997741 202.24646133 79.44009291 204.52451387 79.28125 206.8515625 C78.9375 208.9375 78.9375 208.9375 76.9375 211.9375 C76.27591957 213.98334079 76.27591957 213.98334079 75.8125 216.125 C75.52375 217.383125 75.235 218.64125 74.9375 219.9375 C74.6075 219.9375 74.2775 219.9375 73.9375 219.9375 C73.64875 220.906875 73.36 221.87625 73.0625 222.875 C71.9375 225.9375 71.9375 225.9375 69.9375 226.9375 C69.793125 227.700625 69.64875 228.46375 69.5 229.25 C68.87558447 232.23331866 67.81560556 233.58986806 65.9375 235.9375 C65.6075 236.9275 65.2775 237.9175 64.9375 238.9375 C64.2775 238.9375 63.6175 238.9375 62.9375 238.9375 C63.2675 239.9275 63.5975 240.9175 63.9375 241.9375 C63.06305244 243.61912993 62.17039147 245.29428391 61.1796875 246.91015625 C59.85621579 249.07016197 58.64624194 251.27396282 57.4375 253.5 C55.96570379 256.1673476 54.455752 258.65323989 52.75 261.1875 C50.8635366 263.84936793 50.8635366 263.84936793 49.8125 266.75 C48.9375 268.9375 48.9375 268.9375 46.9375 269.9375 C46.28194881 272.46483235 46.28194881 272.46483235 45.9375 274.9375 C45.2775 274.9375 44.6175 274.9375 43.9375 274.9375 C43.834375 275.63875 43.73125 276.34 43.625 277.0625 C42.84390997 280.32887647 41.51691257 282.9846852 39.9375 285.9375 C39.2775 285.9375 38.6175 285.9375 37.9375 285.9375 C37.855 286.80375 37.7725 287.67 37.6875 288.5625 C36.81987406 292.46681674 35.23752015 294.69041273 32.9375 297.9375 C31.92190599 299.92962671 30.91960371 301.9286515 29.9375 303.9375 C29.2775 304.9275 28.6175 305.9175 27.9375 306.9375 C26.82167759 309.02966702 25.87103122 311.10588759 25 313.3125 C21.8975 320.9775 21.8975 320.9775 18.9375 323.9375 C18.6075 324.7625 18.2775 325.5875 17.9375 326.4375 C16.9375 328.9375 16.9375 328.9375 14.9375 330.9375 C14.64875 331.824375 14.36 332.71125 14.0625 333.625 C12.76385463 337.44878915 11.00345813 340.47202185 8.9375 343.9375 C8.6075 344.5975 8.2775 345.2575 7.9375 345.9375 C7.2775 345.9375 6.6175 345.9375 5.9375 345.9375 C5.6075 347.9175 5.2775 349.8975 4.9375 351.9375 C4.2775 351.9375 3.6175 351.9375 2.9375 351.9375 C2.6075 353.5875 2.2775 355.2375 1.9375 356.9375 C0.9475 357.2675 -0.0425 357.5975 -1.0625 357.9375 C-0.7325 358.9275 -0.4025 359.9175 -0.0625 360.9375 C-1.70419528 362.95804804 -3.37161778 364.95793058 -5.0625 366.9375 C-5.0625 367.9275 -5.0625 368.9175 -5.0625 369.9375 C-5.7225 370.5975 -6.3825 371.2575 -7.0625 371.9375 C-8.21070766 374.57162345 -9.15366374 377.21099121 -10.0625 379.9375 C-10.7225 379.9375 -11.3825 379.9375 -12.0625 379.9375 C-12.0625 380.5975 -12.0625 381.2575 -12.0625 381.9375 C-12.7225 381.9375 -13.3825 381.9375 -14.0625 381.9375 C-13.7325 382.9275 -13.4025 383.9175 -13.0625 384.9375 C-14.01827057 386.30288653 -15.02602976 387.63231525 -16.0625 388.9375 C-16.413125 389.824375 -16.76375 390.71125 -17.125 391.625 C-18.0625 393.9375 -18.0625 393.9375 -20.0625 394.9375 C-20.0625 395.9275 -20.0625 396.9175 -20.0625 397.9375 C-21.00261682 399.63866376 -22.01145617 401.30254293 -23.0625 402.9375 C-24.7420759 405.65066107 -26.05073201 407.90219603 -27.0625 410.9375 C-27.7225 410.9375 -28.3825 410.9375 -29.0625 410.9375 C-29.3925 412.9175 -29.7225 414.8975 -30.0625 416.9375 C-31.0525 417.2675 -32.0425 417.5975 -33.0625 417.9375 C-32.7325 418.9275 -32.4025 419.9175 -32.0625 420.9375 C-32.701875 421.515 -33.34125 422.0925 -34 422.6875 C-36.11528671 424.9950855 -36.48951552 425.97708017 -37.0625 428.9375 C-37.7225 429.9275 -38.3825 430.9175 -39.0625 431.9375 C-40.16864379 434.0115196 -41.10514431 436.05020281 -41.9375 438.25 C-43.37095972 441.67437599 -45.19448417 444.7268478 -47.0625 447.9375 C-47.413125 448.659375 -47.76375 449.38125 -48.125 450.125 C-49.0625 451.9375 -49.0625 451.9375 -50.4375 453.625 C-52.44896821 456.48747399 -53.7067838 459.4856635 -55.0859375 462.69140625 C-56.30548174 465.49635801 -57.66963877 468.21508942 -59.0625 470.9375 C-59.3925 471.659375 -59.7225 472.38125 -60.0625 473.125 C-61.0625 474.9375 -61.0625 474.9375 -62.5625 476.375 C-64.46153312 478.3531595 -65.16149031 480.37308782 -66.0625 482.9375 C-66.7225 482.9375 -67.3825 482.9375 -68.0625 482.9375 C-67.7325 483.9275 -67.4025 484.9175 -67.0625 485.9375 C-68.70419528 487.95804804 -70.37161778 489.95793058 -72.0625 491.9375 C-72.0625 492.9275 -72.0625 493.9175 -72.0625 494.9375 C-72.7225 494.9375 -73.3825 494.9375 -74.0625 494.9375 C-74.165625 495.63875 -74.26875 496.34 -74.375 497.0625 C-75.16068073 500.34807396 -76.47893047 502.96038928 -78.0625 505.9375 C-78.3925 506.63875 -78.7225 507.34 -79.0625 508.0625 C-80.0625 509.9375 -80.0625 509.9375 -81.5625 511.875 C-83.20290487 514.1305567 -84.04261493 516.35379116 -85.0625 518.9375 C-85.7225 519.5975 -86.3825 520.2575 -87.0625 520.9375 C-88.18765427 522.97684212 -89.09324725 525.01656436 -89.9375 527.1875 C-91.18605377 530.23952032 -92.5951962 533.17205109 -94.0625 536.125 C-94.578125 537.17042969 -95.09375 538.21585938 -95.625 539.29296875 C-97.0625 541.9375 -97.0625 541.9375 -99.0625 543.9375 C-99.3925 544.7625 -99.7225 545.5875 -100.0625 546.4375 C-101.0625 548.9375 -101.0625 548.9375 -103.0625 550.9375 C-103.371875 551.88625 -103.68125 552.835 -104 553.8125 C-105.0232329 556.82200854 -106.14867609 558.46547746 -108.0625 560.9375 C-108.73691131 562.6010479 -109.4025321 564.26816942 -110.0625 565.9375 C-111.34558678 568.30136112 -112.70959469 570.612194 -114.0625 572.9375 C-114.413125 573.72125 -114.76375 574.505 -115.125 575.3125 C-116.0625 576.9375 -116.0625 576.9375 -119.0625 577.9375 C-119.165625 578.845 -119.26875 579.7525 -119.375 580.6875 C-120.09184923 584.0762418 -120.98462448 585.27781934 -123.0625 587.9375 C-123.34351563 588.824375 -123.62453125 589.71125 -123.9140625 590.625 C-125.20218733 594.34040768 -126.99965353 597.57544979 -129 600.9375 C-130.99747245 604.33209141 -132.95192691 607.71264153 -134.69140625 611.25 C-136.0625 613.9375 -136.0625 613.9375 -138.0625 615.9375 C-138.73691131 617.6010479 -139.4025321 619.26816942 -140.0625 620.9375 C-141.0625 622.60416667 -142.0625 624.27083333 -143.0625 625.9375 C-143.76072617 627.59119357 -144.43748605 629.25477014 -145.0625 630.9375 C-145.7225 630.9375 -146.3825 630.9375 -147.0625 630.9375 C-147.10375 631.741875 -147.145 632.54625 -147.1875 633.375 C-148.22322026 637.59186108 -150.09101078 640.28946841 -152.58984375 643.7890625 C-154.48893068 646.55961373 -155.8227039 649.29804375 -157 652.4375 C-158.07659069 654.97065457 -159.41943716 656.74674955 -161.0625 658.9375 C-161.76461894 660.58954456 -162.43221413 662.25673769 -163.0625 663.9375 C-163.71285814 665.27886367 -164.3787955 666.61282254 -165.0625 667.9375 C-165.371875 668.5975 -165.68125 669.2575 -166 669.9375 C-167.16108612 672.12307388 -168.57915095 673.95970126 -170.0625 675.9375 C-171.18988154 677.99331339 -172.09450921 680.02103974 -172.93359375 682.2109375 C-174.14239295 685.13045945 -175.54909891 687.85169251 -177.0625 690.625 C-177.8359375 692.05392578 -177.8359375 692.05392578 -178.625 693.51171875 C-180.0625 695.9375 -180.0625 695.9375 -182.0625 697.9375 C-182.3925 698.783125 -182.7225 699.62875 -183.0625 700.5 C-184.0625 702.9375 -184.0625 702.9375 -186.0625 703.9375 C-186.0625 704.9275 -186.0625 705.9175 -186.0625 706.9375 C-187.03135372 708.62246298 -188.03236723 710.28928756 -189.0625 711.9375 C-189.3925 712.9275 -189.7225 713.9175 -190.0625 714.9375 C-190.7225 715.5975 -191.3825 716.2575 -192.0625 716.9375 C-192.73691131 718.6010479 -193.4025321 720.26816942 -194.0625 721.9375 C-195.5625 724.75 -195.5625 724.75 -197.0625 726.9375 C-197.7225 726.9375 -198.3825 726.9375 -199.0625 726.9375 C-198.7325 727.9275 -198.4025 728.9175 -198.0625 729.9375 C-199.01827057 731.30288653 -200.02602976 732.63231525 -201.0625 733.9375 C-201.73599161 735.60142045 -202.4034159 737.26782028 -203.0625 738.9375 C-203.7225 739.5975 -204.3825 740.2575 -205.0625 740.9375 C-206.1855745 742.97307253 -207.08541067 744.99789125 -207.91015625 747.171875 C-209.24190818 750.36807962 -210.83680586 753.33832941 -212.5 756.375 C-214.28204822 759.63503206 -216.03512262 762.88120569 -217.66015625 766.22265625 C-219.0625 768.9375 -219.0625 768.9375 -221.0625 770.9375 C-222.20980551 773.01699124 -223.12780888 775.10294917 -224 777.3125 C-225.19234537 780.25829444 -226.64127571 783.09505143 -228.0625 785.9375 C-323.5975 786.4325 -323.5975 786.4325 -421.0625 786.9375 C-421.0625 786.2775 -421.0625 785.6175 -421.0625 784.9375 C-421.7225 784.9375 -422.3825 784.9375 -423.0625 784.9375 C-423.11656122 783.00030622 -423.15532025 781.06268079 -423.1875 779.125 C-423.21070313 778.04605469 -423.23390625 776.96710937 -423.2578125 775.85546875 C-423.0625 772.9375 -423.0625 772.9375 -421.0625 769.9375 C-420.37763275 768.61342331 -419.71379797 767.27840759 -419.0625 765.9375 C-417.0625 761.9375 -415.0625 757.9375 -413.0625 753.9375 C-412.70027344 753.2053125 -412.33804687 752.473125 -411.96484375 751.71875 C-410.38298164 748.5961131 -408.61406899 745.66557107 -406.5 742.875 C-404.52657314 740.2151638 -403.28960559 737.50526399 -402.0625 734.4375 C-400.82538201 731.34470503 -399.60787102 728.64193757 -397.5625 726 C-395.92209513 723.7444433 -395.08238507 721.52120884 -394.0625 718.9375 C-393.4025 718.2775 -392.7425 717.6175 -392.0625 716.9375 C-389.97410072 713.71788444 -388.39799523 710.53306408 -387.0625 706.9375 C-386.4025 706.9375 -385.7425 706.9375 -385.0625 706.9375 C-385.5575 705.4525 -385.5575 705.4525 -386.0625 703.9375 C-385.13671875 701.89453125 -385.13671875 701.89453125 -383.75 699.75 C-383.07517578 698.67685547 -383.07517578 698.67685547 -382.38671875 697.58203125 C-381.94972656 697.03933594 -381.51273437 696.49664063 -381.0625 695.9375 C-380.4025 695.9375 -379.7425 695.9375 -379.0625 695.9375 C-379.10375 695.15375 -379.145 694.37 -379.1875 693.5625 C-379.0625 690.9375 -379.0625 690.9375 -377.0625 688.9375 C-376.7325 688.1125 -376.4025 687.2875 -376.0625 686.4375 C-375.0625 683.9375 -375.0625 683.9375 -373.0625 681.9375 C-372.3787955 680.61282254 -371.71285814 679.27886367 -371.0625 677.9375 C-370.4025 676.9475 -369.7425 675.9575 -369.0625 674.9375 C-368.794375 674.07125 -368.52625 673.205 -368.25 672.3125 C-366.05732658 666.08069134 -362.60529112 660.22193854 -358.5625 655 C-356.6133391 652.31990376 -355.33931611 649.63876748 -354.125 646.5625 C-352.40116393 642.30361087 -350.28705324 638.29146252 -348 634.3125 C-346.60083847 631.87525088 -345.27987344 629.46589098 -344.0625 626.9375 C-343.7325 626.2775 -343.4025 625.6175 -343.0625 624.9375 C-342.0725 624.9375 -341.0825 624.9375 -340.0625 624.9375 C-340.5575 623.4525 -340.5575 623.4525 -341.0625 621.9375 C-340.06640625 619.67578125 -340.06640625 619.67578125 -338.625 617.25 C-338.15191406 616.44175781 -337.67882812 615.63351562 -337.19140625 614.80078125 C-336.81886719 614.18589844 -336.44632812 613.57101562 -336.0625 612.9375 C-335.4025 612.9375 -334.7425 612.9375 -334.0625 612.9375 C-334.5575 611.4525 -334.5575 611.4525 -335.0625 609.9375 C-334.13671875 607.89453125 -334.13671875 607.89453125 -332.75 605.75 C-332.07517578 604.67685547 -332.07517578 604.67685547 -331.38671875 603.58203125 C-330.73123047 602.76798828 -330.73123047 602.76798828 -330.0625 601.9375 C-329.4025 601.9375 -328.7425 601.9375 -328.0625 601.9375 C-328.124375 601.15375 -328.18625 600.37 -328.25 599.5625 C-328.188125 598.69625 -328.12625 597.83 -328.0625 596.9375 C-327.0725 596.2775 -326.0825 595.6175 -325.0625 594.9375 C-324.68940101 593.27928227 -324.35549023 591.61172986 -324.0625 589.9375 C-323.4025 589.2775 -322.7425 588.6175 -322.0625 587.9375 C-321.35855388 586.62346724 -320.69904342 585.2854743 -320.0625 583.9375 C-319.0625 581.9375 -318.0625 579.9375 -317.0625 577.9375 C-316.4025 577.9375 -315.7425 577.9375 -315.0625 577.9375 C-315.5575 576.4525 -315.5575 576.4525 -316.0625 574.9375 C-315.4025 573.9475 -314.7425 572.9575 -314.0625 571.9375 C-313.4025 571.9375 -312.7425 571.9375 -312.0625 571.9375 C-311.5675 569.4625 -311.5675 569.4625 -311.0625 566.9375 C-310.4025 566.9375 -309.7425 566.9375 -309.0625 566.9375 C-308.93875 565.968125 -308.815 564.99875 -308.6875 564 C-308.48125 562.989375 -308.275 561.97875 -308.0625 560.9375 C-307.4025 560.6075 -306.7425 560.2775 -306.0625 559.9375 C-305.70837656 558.60953709 -305.37728446 557.27533393 -305.0625 555.9375 C-304.4025 554.9475 -303.7425 553.9575 -303.0625 552.9375 C-302.3787955 551.61282254 -301.71285814 550.27886367 -301.0625 548.9375 C-296.5625 539.9375 -296.5625 539.9375 -292.0625 530.9375 C-291.0725 530.9375 -290.0825 530.9375 -289.0625 530.9375 C-289.3925 529.9475 -289.7225 528.9575 -290.0625 527.9375 C-289.06640625 525.67578125 -289.06640625 525.67578125 -287.625 523.25 C-287.15191406 522.44175781 -286.67882812 521.63351562 -286.19140625 520.80078125 C-285.81886719 520.18589844 -285.44632813 519.57101562 -285.0625 518.9375 C-284.4025 518.9375 -283.7425 518.9375 -283.0625 518.9375 C-283.3925 517.9475 -283.7225 516.9575 -284.0625 515.9375 C-282.91796875 513.59765625 -282.91796875 513.59765625 -281.25 511 C-278.98344184 507.44947463 -278.98344184 507.44947463 -276.98828125 503.74609375 C-276.0625 501.9375 -276.0625 501.9375 -274.0625 499.9375 C-273.4199765 497.86875966 -273.4199765 497.86875966 -273.0625 495.9375 C-272.0725 495.9375 -271.0825 495.9375 -270.0625 495.9375 C-270.3925 494.9475 -270.7225 493.9575 -271.0625 492.9375 C-270.06640625 490.67578125 -270.06640625 490.67578125 -268.625 488.25 C-268.15191406 487.44175781 -267.67882812 486.63351562 -267.19140625 485.80078125 C-266.81886719 485.18589844 -266.44632813 484.57101562 -266.0625 483.9375 C-265.4025 483.9375 -264.7425 483.9375 -264.0625 483.9375 C-264.3925 482.9475 -264.7225 481.9575 -265.0625 480.9375 C-264.13671875 478.89453125 -264.13671875 478.89453125 -262.75 476.75 C-262.30011719 476.03457031 -261.85023438 475.31914063 -261.38671875 474.58203125 C-260.94972656 474.03933594 -260.51273438 473.49664063 -260.0625 472.9375 C-259.4025 472.9375 -258.7425 472.9375 -258.0625 472.9375 C-257.93875 472.195 -257.815 471.4525 -257.6875 470.6875 C-256.67806658 466.24599294 -254.38911419 462.81519032 -252.0625 458.9375 C-251.3787955 457.61282254 -250.71285814 456.27886367 -250.0625 454.9375 C-249.0625 452.9375 -248.0625 450.9375 -247.0625 448.9375 C-246.4025 448.9375 -245.7425 448.9375 -245.0625 448.9375 C-245.2171875 447.9475 -245.2171875 447.9475 -245.375 446.9375 C-244.98004123 443.1458958 -243.45910785 441.01436248 -241.3515625 437.90234375 C-240.08487579 435.97160613 -239.08690321 434.00366918 -238.0625 431.9375 C-237.60875 431.380625 -237.155 430.82375 -236.6875 430.25 C-234.66783083 427.37585542 -233.42931993 424.34844611 -232.0390625 421.1328125 C-230.90313565 418.57924893 -229.68171949 416.21912747 -228.0625 413.9375 C-227.4025 413.9375 -226.7425 413.9375 -226.0625 413.9375 C-226.2171875 412.9165625 -226.2171875 412.9165625 -226.375 411.875 C-225.93714318 407.7591459 -223.89508179 404.91600267 -221.0625 401.9375 C-220.4025 401.9375 -219.7425 401.9375 -219.0625 401.9375 C-219.3925 400.9475 -219.7225 399.9575 -220.0625 398.9375 C-219.06640625 396.67578125 -219.06640625 396.67578125 -217.625 394.25 C-217.15191406 393.44175781 -216.67882812 392.63351562 -216.19140625 391.80078125 C-215.81886719 391.18589844 -215.44632813 390.57101562 -215.0625 389.9375 C-214.4025 389.9375 -213.7425 389.9375 -213.0625 389.9375 C-213.145 389.23625 -213.2275 388.535 -213.3125 387.8125 C-212.91104678 383.19578798 -210.26758409 380.14258409 -207.0625 376.9375 C-206.7325 376.2775 -206.4025 375.6175 -206.0625 374.9375 C-205.0625 372.9375 -205.0625 372.9375 -203.0625 370.9375 C-203.0625 369.9475 -203.0625 368.9575 -203.0625 367.9375 C-202.14689314 366.23508724 -201.15822215 364.57120656 -200.125 362.9375 C-198.41352112 360.21855483 -197.08137363 357.9941209 -196.0625 354.9375 C-195.4025 354.9375 -194.7425 354.9375 -194.0625 354.9375 C-193.959375 354.07125 -193.85625 353.205 -193.75 352.3125 C-193.02851586 348.77066877 -191.79126739 346.09437958 -190.0625 342.9375 C-189.0725 342.9375 -188.0825 342.9375 -187.0625 342.9375 C-187.3925 341.9475 -187.7225 340.9575 -188.0625 339.9375 C-186.77201192 337.90959016 -185.43071051 335.91380407 -184.0625 333.9375 C-183.05765117 331.60625071 -182.05727753 329.27306463 -181.0625 326.9375 C-180.08668241 325.58636795 -179.09220259 324.24803056 -178.0625 322.9375 C-177.7325 321.9475 -177.4025 320.9575 -177.0625 319.9375 C-176.4025 319.9375 -175.7425 319.9375 -175.0625 319.9375 C-174.93875 318.98875 -174.815 318.04 -174.6875 317.0625 C-174.0625 313.9375 -174.0625 313.9375 -172.0625 311.9375 C-171.36501417 310.62002676 -170.69290043 309.28835807 -170.0625 307.9375 C-169.4025 307.9375 -168.7425 307.9375 -168.0625 307.9375 C-168.3925 306.9475 -168.7225 305.9575 -169.0625 304.9375 C-167.87890625 302.73046875 -167.87890625 302.73046875 -166.0625 299.9375 C-165.39274109 298.71101455 -164.73596268 297.4773833 -164.08984375 296.23828125 C-163.74759766 295.58666016 -163.40535156 294.93503906 -163.05273438 294.26367188 C-162.34526095 292.91041566 -161.63955829 291.55623237 -160.93554688 290.20117188 C-159.49665615 287.46755149 -158.26053515 285.13553515 -156.0625 282.9375 C-155.7325 282.2775 -155.4025 281.6175 -155.0625 280.9375 C-154.0625 278.9375 -154.0625 278.9375 -152.0625 276.9375 C-152.0625 275.9475 -152.0625 274.9575 -152.0625 273.9375 C-151.08315076 272.25861559 -150.07906081 270.59411761 -149.0625 268.9375 C-148.52525602 267.6944649 -148.00470024 266.44410059 -147.5 265.1875 C-146.0625 261.9375 -146.0625 261.9375 -144.0625 260.9375 C-143.30748897 259.23051854 -142.55703242 257.52101376 -141.8515625 255.79296875 C-140.80678991 253.33620151 -139.58857766 251.12708969 -138.0625 248.9375 C-137.4025 248.9375 -136.7425 248.9375 -136.0625 248.9375 C-136.145 248.23625 -136.2275 247.535 -136.3125 246.8125 C-135.97692831 242.95342562 -134.28753639 241.08963488 -132.0625 237.9375 C-130.64903137 235.30885511 -129.35772782 232.62591405 -128.0625 229.9375 C-127.39769358 228.60323816 -126.73153388 227.2696471 -126.0625 225.9375 C-125.4025 225.9375 -124.7425 225.9375 -124.0625 225.9375 C-123.98 225.07125 -123.8975 224.205 -123.8125 223.3125 C-122.94892716 219.42642222 -121.50999984 217.05249979 -119.0625 213.9375 C-118.4025 213.9375 -117.7425 213.9375 -117.0625 213.9375 C-117.124375 213.215625 -117.18625 212.49375 -117.25 211.75 C-117.02088212 208.31323181 -115.88142841 206.85276883 -114.0625 203.9375 C-112.25077407 200.56825468 -110.46607413 197.18557732 -108.68359375 193.80078125 C-107.0625 190.9375 -107.0625 190.9375 -105.0625 188.9375 C-104.7325 188.091875 -104.4025 187.24625 -104.0625 186.375 C-103.0625 183.9375 -103.0625 183.9375 -101.0625 182.9375 C-101.0625 181.9475 -101.0625 180.9575 -101.0625 179.9375 C-100.0725 179.6075 -99.0825 179.2775 -98.0625 178.9375 C-98.3925 177.9475 -98.7225 176.9575 -99.0625 175.9375 C-98.10672943 174.57211347 -97.09897024 173.24268475 -96.0625 171.9375 C-95.76988281 171.19886719 -95.47726562 170.46023438 -95.17578125 169.69921875 C-93.88578948 166.49913389 -92.28498797 163.61380858 -90.5625 160.625 C-89.9540625 159.55636719 -89.345625 158.48773437 -88.71875 157.38671875 C-88.1721875 156.57847656 -87.625625 155.77023437 -87.0625 154.9375 C-86.4025 154.9375 -85.7425 154.9375 -85.0625 154.9375 C-85.145 154.23625 -85.2275 153.535 -85.3125 152.8125 C-84.97813983 148.967358 -83.28893182 147.05450454 -81.0625 143.9375 C-80.04690599 141.94537329 -79.04460371 139.9463485 -78.0625 137.9375 C-77.4025 136.9475 -76.7425 135.9575 -76.0625 134.9375 C-75.7325 133.9475 -75.4025 132.9575 -75.0625 131.9375 C-74.4025 131.2775 -73.7425 130.6175 -73.0625 129.9375 C-72.14922231 128.24932002 -71.27813069 126.53800509 -70.4375 124.8125 C-69.99148438 123.90242188 -69.54546875 122.99234375 -69.0859375 122.0546875 C-68.74820312 121.35601562 -68.41046875 120.65734375 -68.0625 119.9375 C-67.4025 119.9375 -66.7425 119.9375 -66.0625 119.9375 C-66.1553125 118.8546875 -66.1553125 118.8546875 -66.25 117.75 C-66.0199512 114.29926807 -64.94477309 112.82813367 -63.0625 109.9375 C-61.68556832 107.29221189 -60.37215776 104.61664761 -59.0625 101.9375 C-58.4025 101.9375 -57.7425 101.9375 -57.0625 101.9375 C-56.93875 101.15375 -56.815 100.37 -56.6875 99.5625 C-56.0625 96.9375 -56.0625 96.9375 -54.0625 94.9375 C-53.7325 94.2775 -53.4025 93.6175 -53.0625 92.9375 C-52.0625 90.9375 -52.0625 90.9375 -50.0625 88.9375 C-50.0625 87.9475 -50.0625 86.9575 -50.0625 85.9375 C-48.5775 85.4425 -48.5775 85.4425 -47.0625 84.9375 C-47.3925 83.9475 -47.7225 82.9575 -48.0625 81.9375 C-46.8052988 79.51980539 -45.4840585 77.25477404 -44.0625 74.9375 C-43.20142637 73.39968043 -42.34739413 71.85789962 -41.5 70.3125 C-40.86964844 69.18134766 -40.86964844 69.18134766 -40.2265625 68.02734375 C-39.2713721 66.31248851 -38.32232218 64.59421432 -37.375 62.875 C-36.941875 62.235625 -36.50875 61.59625 -36.0625 60.9375 C-35.4025 60.9375 -34.7425 60.9375 -34.0625 60.9375 C-34.124375 60.174375 -34.18625 59.41125 -34.25 58.625 C-34.02548992 55.40702212 -33.39675788 55.00242043 -31.0625 52.9375 C-29.86406533 50.82261529 -28.96557588 48.6951897 -28.0625 46.4375 C-26.47757709 42.47519272 -24.63585076 39.33432301 -22.0625 35.9375 C-19.98946197 32.70356067 -18.40001041 29.53848957 -17.0625 25.9375 C-16.4025 25.9375 -15.7425 25.9375 -15.0625 25.9375 C-15.1553125 24.8546875 -15.1553125 24.8546875 -15.25 23.75 C-15.01803741 20.27056114 -14.01087128 18.8264643 -12.0625 15.9375 C-8.64010917 10.72315809 -8.64010917 10.72315809 -5.9375 5.125 C-4.67902728 1.97881819 -3.60636599 -0.10928382 0 0 Z " fill="#FEFEFE" transform="translate(754.0625,387.0625)"/>
<path d="M0 0 C0.71652646 0.00514356 1.43305292 0.01028713 2.1712923 0.01558656 C2.93113076 0.01317214 3.69096922 0.01075772 4.47383308 0.00827014 C7.03347257 0.00261046 9.59286499 0.01131326 12.15249348 0.01990479 C13.98203315 0.01883247 15.81157249 0.01689454 17.64111042 0.01415223 C22.62033967 0.00929274 27.5994797 0.0169733 32.57869816 0.02710527 C37.78013481 0.03586793 42.98156852 0.03412867 48.18301105 0.03374451 C56.91927305 0.03468198 65.65550038 0.04337694 74.39175129 0.05701417 C84.50396091 0.07274055 94.61613254 0.07801232 104.7283535 0.07727861 C114.44065156 0.076669 124.15293719 0.08176833 133.86523151 0.09007043 C138.00555232 0.0936084 142.14586874 0.09543441 146.28619099 0.09596413 C151.15836327 0.0969661 156.03050344 0.1030507 160.90266514 0.11313027 C162.69498848 0.11605984 164.48731551 0.11727972 166.27964115 0.11670274 C168.71800601 0.11621468 171.15627992 0.12184168 173.59463215 0.12911195 C174.31115861 0.12756334 175.02768507 0.12601474 175.76592445 0.12441921 C180.65460442 0.14864581 180.65460442 0.14864581 182.88296223 1.26282471 C184.62390736 7.36267758 183.87924485 11.80530993 180.88296223 17.26282471 C179.9142319 18.61904717 178.91862008 19.95699525 177.88296223 21.26282471 C176.7657876 23.3000255 175.86700875 25.30489738 175.04311848 27.47766846 C173.68504888 30.73795002 172.06704885 33.783682 170.38296223 36.88782471 C169.77452473 38.01446534 169.16608723 39.14110596 168.53921223 40.30188721 C166.88296223 43.26282471 166.88296223 43.26282471 164.88296223 46.26282471 C164.55296223 47.25282471 164.22296223 48.24282471 163.88296223 49.26282471 C163.22296223 49.92282471 162.56296223 50.58282471 161.88296223 51.26282471 C160.33325783 53.65195233 159.01372161 55.9280356 157.97671223 58.58313721 C156.80065202 61.46448472 155.39555589 64.10643761 153.88296223 66.82532471 C152.15257563 69.94434655 150.45290646 73.05985813 148.88296223 76.26282471 C148.55296223 76.92282471 148.22296223 77.58282471 147.88296223 78.26282471 C146.89296223 78.26282471 145.90296223 78.26282471 144.88296223 78.26282471 C145.21296223 79.25282471 145.54296223 80.24282471 145.88296223 81.26282471 C144.59784349 83.29414143 143.26420186 85.29560463 141.88296223 87.26282471 C141.88296223 87.92282471 141.88296223 88.58282471 141.88296223 89.26282471 C141.22296223 89.92282471 140.56296223 90.58282471 139.88296223 91.26282471 C139.59421223 92.00532471 139.30546223 92.74782471 139.00796223 93.51282471 C137.68522037 96.7461937 135.81797552 99.36030477 133.88296223 102.26282471 C133.20329547 103.92423235 132.53357318 105.58982513 131.88296223 107.26282471 C131.22296223 107.92282471 130.56296223 108.58282471 129.88296223 109.26282471 C129.18547639 110.58029795 128.51336266 111.91196665 127.88296223 113.26282471 C127.22296223 113.26282471 126.56296223 113.26282471 125.88296223 113.26282471 C125.92421223 114.00532471 125.96546223 114.74782471 126.00796223 115.51282471 C125.84127979 119.17983829 124.69803578 121.18840957 122.50796223 124.07532471 C119.71087405 127.84063572 117.37127359 131.79789063 115.88296223 136.26282471 C115.22296223 136.26282471 114.56296223 136.26282471 113.88296223 136.26282471 C113.75921223 137.21157471 113.63546223 138.16032471 113.50796223 139.13782471 C112.88296223 142.26282471 112.88296223 142.26282471 110.88296223 144.26282471 C110.18547639 145.58029795 109.51336266 146.91196665 108.88296223 148.26282471 C108.22296223 148.26282471 107.56296223 148.26282471 106.88296223 148.26282471 C106.97577473 149.31469971 106.97577473 149.31469971 107.07046223 150.38782471 C106.84040122 153.91542683 105.59095655 156.20266823 103.88296223 159.26282471 C103.22296223 159.26282471 102.56296223 159.26282471 101.88296223 159.26282471 C101.75921223 160.04657471 101.63546223 160.83032471 101.50796223 161.63782471 C100.88296223 164.26282471 100.88296223 164.26282471 98.88296223 166.26282471 C98.55296223 167.08782471 98.22296223 167.91282471 97.88296223 168.76282471 C96.88296223 171.26282471 96.88296223 171.26282471 94.88296223 173.26282471 C94.17901611 174.57685747 93.51950564 175.91485042 92.88296223 177.26282471 C91.88296223 179.26282471 90.88296223 181.26282471 89.88296223 183.26282471 C89.22296223 183.26282471 88.56296223 183.26282471 87.88296223 183.26282471 C87.77983723 184.14969971 87.67671223 185.03657471 87.57046223 185.95032471 C86.86580316 189.34550021 85.92750563 191.48224569 83.88296223 194.26282471 C83.22296223 194.26282471 82.56296223 194.26282471 81.88296223 194.26282471 C82.21296223 195.25282471 82.54296223 196.24282471 82.88296223 197.26282471 C81.60937491 198.97558007 80.26873145 200.63949505 78.88296223 202.26282471 C77.68756265 204.38797953 76.78894215 206.49787491 75.88296223 208.76282471 C70.88296223 221.26282471 70.88296223 221.26282471 66.88296223 223.26282471 C66.18858475 225.25337347 65.52686005 227.25537857 64.88296223 229.26282471 C62.31153366 234.83425329 62.31153366 234.83425329 59.88296223 237.26282471 C58.7524921 239.31180182 57.84740249 241.35537528 57.00796223 243.54016846 C55.79576502 246.47385408 54.39218947 249.22075431 52.88296223 252.01282471 C52.36733723 252.97704346 51.85171223 253.94126221 51.32046223 254.93469971 C49.88296223 257.26282471 49.88296223 257.26282471 47.88296223 258.26282471 C46.85817218 260.47075061 46.85817218 260.47075061 45.94546223 263.07532471 C44.64992734 266.62624422 43.24403375 269.31148532 40.88296223 272.26282471 C39.69135097 274.43576288 38.76623438 276.5692353 37.88296223 278.88782471 C36.88296223 281.26282471 36.88296223 281.26282471 34.88296223 283.26282471 C34.13372512 284.98932762 33.38716706 286.71723516 32.67202473 288.45813721 C31.62035282 290.86344622 30.2672862 293.03586875 28.88296223 295.26282471 C28.55296223 296.00532471 28.22296223 296.74782471 27.88296223 297.51282471 C26.88296223 299.26282471 26.88296223 299.26282471 23.88296223 300.26282471 C24.21296223 301.25282471 24.54296223 302.24282471 24.88296223 303.26282471 C23.9792233 304.70211264 23.06184753 306.13525855 22.06655598 307.51282471 C20.3699574 310.02132689 19.11501233 312.70229 17.81264973 315.43079346 C16.88296223 317.26282471 16.88296223 317.26282471 14.88296223 320.26282471 C14.19799512 321.5658676 13.53216353 322.87909863 12.88296223 324.20032471 C12.55296223 324.86934815 12.22296223 325.53837159 11.88296223 326.22766846 C11.55296223 326.89927003 11.22296223 327.57087159 10.88296223 328.26282471 C9.35370223 331.36716523 7.66413048 334.29421096 5.88296223 337.26282471 C3.07779449 342.19699598 0.36956373 347.15874793 -2.11703777 352.26282471 C-2.77703777 352.26282471 -3.43703777 352.26282471 -4.11703777 352.26282471 C-4.24078777 353.21157471 -4.36453777 354.16032471 -4.49203777 355.13782471 C-5.11703777 358.26282471 -5.11703777 358.26282471 -7.11703777 360.26282471 C-8.66674217 362.65195233 -9.98627839 364.9280356 -11.02328777 367.58313721 C-12.19934798 370.46448472 -13.60444411 373.10643761 -15.11703777 375.82532471 C-16.84742437 378.94434655 -18.54709354 382.05985813 -20.11703777 385.26282471 C-20.44703777 385.92282471 -20.77703777 386.58282471 -21.11703777 387.26282471 C-22.10703777 387.26282471 -23.09703777 387.26282471 -24.11703777 387.26282471 C-23.78703777 388.25282471 -23.45703777 389.24282471 -23.11703777 390.26282471 C-24.41912573 392.28330603 -25.75692168 394.28094127 -27.11703777 396.26282471 C-27.44703777 397.27344971 -27.77703777 398.28407471 -28.11703777 399.32532471 C-29.24679033 402.64397285 -30.90788096 404.57041485 -33.11703777 407.26282471 C-33.79836228 408.92355321 -34.46445904 410.59059171 -35.11703777 412.26282471 C-36.43135472 414.27537254 -37.76425662 416.2759274 -39.11703777 418.26282471 C-39.81133156 419.58198291 -40.49234273 420.90931878 -41.11703777 422.26282471 C-41.77703777 422.26282471 -42.43703777 422.26282471 -43.11703777 422.26282471 C-43.05516277 423.37657471 -43.05516277 423.37657471 -42.99203777 424.51282471 C-43.12263514 427.38596668 -43.68307298 428.81664947 -45.11703777 431.26282471 C-45.44703777 431.92282471 -45.77703777 432.58282471 -46.11703777 433.26282471 C-46.77703777 433.26282471 -47.43703777 433.26282471 -48.11703777 433.26282471 C-48.19953777 433.94344971 -48.28203777 434.62407471 -48.36703777 435.32532471 C-49.54214377 439.92782318 -51.73248029 443.87826723 -55.11703777 447.26282471 C-55.28203777 447.92282471 -55.44703777 448.58282471 -55.61703777 449.26282471 C-56.11703777 451.26282471 -56.11703777 451.26282471 -58.11703777 453.26282471 C-58.81452361 454.58029795 -59.48663734 455.91196665 -60.11703777 457.26282471 C-60.77703777 457.26282471 -61.43703777 457.26282471 -62.11703777 457.26282471 C-62.05516277 458.37657471 -62.05516277 458.37657471 -61.99203777 459.51282471 C-62.21638806 464.44853105 -65.29414895 468.19782752 -67.89828777 472.26282471 C-69.1485204 474.25182289 -69.1485204 474.25182289 -70.17953777 476.38782471 C-71.26377052 478.55629021 -72.6641213 480.32560274 -74.11703777 482.26282471 C-74.8185493 483.57815882 -75.48229703 484.91400063 -76.11703777 486.26282471 C-77.66008733 489.41321755 -79.16897628 492.34073247 -81.11703777 495.26282471 C-82.23941263 497.42158604 -83.28420333 499.61162208 -84.33578777 501.80579346 C-84.75860027 502.67848878 -85.18141277 503.55118409 -85.61703777 504.45032471 C-86.03985027 505.3307544 -86.46266277 506.21118409 -86.89828777 507.11829346 C-88.11703777 509.26282471 -88.11703777 509.26282471 -90.11703777 510.26282471 C-90.45857714 511.92782914 -90.79153275 513.59461149 -91.11703777 515.26282471 C-91.77703777 515.92282471 -92.43703777 516.58282471 -93.11703777 517.26282471 C-93.82098389 518.57685747 -94.48049436 519.91485042 -95.11703777 521.26282471 C-95.61203777 522.23219971 -96.10703777 523.20157471 -96.61703777 524.20032471 C-98.13659198 527.18115107 -98.13659198 527.18115107 -99.17953777 530.07532471 C-100.11703777 532.26282471 -100.11703777 532.26282471 -102.11703777 533.26282471 C-102.38516277 533.94344971 -102.65328777 534.62407471 -102.92953777 535.32532471 C-103.97555231 537.91283435 -105.11477531 539.93233544 -106.61703777 542.26282471 C-108.50193981 545.19733692 -109.83567575 548.01670759 -111.11703777 551.26282471 C-112.45037111 553.26282471 -113.78370444 555.26282471 -115.11703777 557.26282471 C-115.41738934 558.02723878 -115.7177409 558.79165284 -116.02719402 559.57923096 C-117.27449795 562.65054924 -118.85268842 565.35658935 -120.55453777 568.20032471 C-122.91551235 572.15228 -125.09998777 576.12386279 -127.11703777 580.26282471 C-127.77703777 580.26282471 -128.43703777 580.26282471 -129.11703777 580.26282471 C-129.27172527 581.59313721 -129.27172527 581.59313721 -129.42953777 582.95032471 C-130.13419684 586.34550021 -131.07249437 588.48224569 -133.11703777 591.26282471 C-133.77703777 591.26282471 -134.43703777 591.26282471 -135.11703777 591.26282471 C-135.05516277 591.98469971 -134.99328777 592.70657471 -134.92953777 593.45032471 C-135.20657732 597.60591793 -137.21727825 600.07514215 -139.67953777 603.32532471 C-141.09316378 605.23064672 -142.1200351 607.11543435 -143.11703777 609.26282471 C-143.77703777 609.26282471 -144.43703777 609.26282471 -145.11703777 609.26282471 C-145.22016277 609.94344971 -145.32328777 610.62407471 -145.42953777 611.32532471 C-146.47606563 615.79685283 -147.83373608 619.97952302 -151.11703777 623.26282471 C-151.44703777 624.25282471 -151.77703777 625.24282471 -152.11703777 626.26282471 C-152.77703777 626.26282471 -153.43703777 626.26282471 -154.11703777 626.26282471 C-154.24078777 627.21157471 -154.36453777 628.16032471 -154.49203777 629.13782471 C-155.11703777 632.26282471 -155.11703777 632.26282471 -157.11703777 634.26282471 C-157.44703777 635.08782471 -157.77703777 635.91282471 -158.11703777 636.76282471 C-159.11703777 639.26282471 -159.11703777 639.26282471 -161.11703777 641.26282471 C-161.42641277 642.21157471 -161.73578777 643.16032471 -162.05453777 644.13782471 C-163.08177862 647.15912132 -164.14324762 648.81532492 -166.11703777 651.26282471 C-167.73851195 653.79232442 -169.07384645 656.15357608 -170.17953777 658.95032471 C-171.11703777 661.26282471 -171.11703777 661.26282471 -173.11703777 663.26282471 C-173.33360027 664.22188721 -173.33360027 664.22188721 -173.55453777 665.20032471 C-174.11703777 667.26282471 -174.11703777 667.26282471 -175.55453777 668.63782471 C-177.71889331 670.88875447 -178.17181054 673.30898961 -179.11703777 676.26282471 C-180.06797074 677.95796609 -181.06811539 679.62650579 -182.11703777 681.26282471 C-184.23535522 684.73451164 -186.23668313 688.2526585 -188.17953777 691.82532471 C-188.68613934 692.75473878 -189.1927409 693.68415284 -189.71469402 694.64173096 C-190.57127466 696.24274936 -191.40747976 697.8551598 -192.20688152 699.48548096 C-193.11703777 701.26282471 -193.11703777 701.26282471 -194.61703777 703.13782471 C-196.25296313 705.22284868 -196.25296313 705.22284868 -196.92953777 707.88782471 C-198.35189012 711.93029981 -200.42024609 715.26947406 -202.67953777 718.89563721 C-204.12455915 721.19335356 -204.12455915 721.19335356 -205.17953777 723.44251221 C-206.11703777 725.26282471 -206.11703777 725.26282471 -208.11703777 727.26282471 C-208.81452361 728.58029795 -209.48663734 729.91196665 -210.11703777 731.26282471 C-210.77703777 731.26282471 -211.43703777 731.26282471 -212.11703777 731.26282471 C-212.07578777 732.00532471 -212.03453777 732.74782471 -211.99203777 733.51282471 C-212.18382496 737.73214276 -214.3075728 740.65187905 -216.55453777 744.13782471 C-218.1242415 746.61241647 -219.48904115 749.00683147 -220.80453777 751.63782471 C-222.11703777 754.26282471 -222.11703777 754.26282471 -224.11703777 756.26282471 C-224.79144908 757.92637261 -225.45706987 759.59349413 -226.11703777 761.26282471 C-227.68730008 764.01078374 -229.36096667 766.62871806 -231.11703777 769.26282471 C-232.22318156 771.33684432 -233.15968208 773.37552752 -233.99203777 775.57532471 C-235.90561412 780.14664599 -238.11721054 785.17204912 -242.11703777 788.26282471 C-242.77703777 788.26282471 -243.43703777 788.26282471 -244.11703777 788.26282471 C-244.44703777 786.94282471 -244.77703777 785.62282471 -245.11703777 784.26282471 C-246.10703777 784.26282471 -247.09703777 784.26282471 -248.11703777 784.26282471 C-248.22016277 783.49969971 -248.32328777 782.73657471 -248.42953777 781.95032471 C-249.18613608 778.99271317 -249.93476602 778.27051472 -252.11703777 776.26282471 C-252.82098389 774.94879196 -253.48049436 773.61079901 -254.11703777 772.26282471 C-254.79680314 771.05012329 -255.4849553 769.8421008 -256.17953777 768.63782471 C-257.19607021 766.86709079 -258.20392915 765.08904196 -259.11703777 763.26282471 C-258.78703777 762.60282471 -258.45703777 761.94282471 -258.11703777 761.26282471 C-258.77703777 760.93282471 -259.43703777 760.60282471 -260.11703777 760.26282471 C-260.24078777 759.45844971 -260.36453777 758.65407471 -260.49203777 757.82532471 C-260.84270942 755.10299073 -260.84270942 755.10299073 -263.17953777 753.95032471 C-263.81891277 753.72344971 -264.45828777 753.49657471 -265.11703777 753.26282471 C-265.11703777 752.27282471 -265.11703777 751.28282471 -265.11703777 750.26282471 C-266.09351794 749.23984549 -267.09835116 748.2437822 -268.11703777 747.26282471 C-270.75907352 743.24693038 -272.44442431 739.14614242 -274.05453777 734.63782471 C-275.11927856 732.25781589 -276.16152141 730.95167976 -278.11703777 729.26282471 C-277.78703777 728.27282471 -277.45703777 727.28282471 -277.11703777 726.26282471 C-278.10703777 725.93282471 -279.09703777 725.60282471 -280.11703777 725.26282471 C-281.15219402 723.47766846 -281.15219402 723.47766846 -282.11703777 721.26282471 C-282.92125432 719.77913808 -283.73408497 718.30009502 -284.55453777 716.82532471 C-284.9902409 716.04028565 -285.42594402 715.25524659 -285.87485027 714.44641846 C-286.84883718 712.73428425 -287.87904946 711.05411651 -288.92953777 709.38782471 C-290.11703777 707.26282471 -290.11703777 707.26282471 -290.11703777 704.26282471 C-291.42833699 702.90781552 -292.76395464 701.57611128 -294.11703777 700.26282471 C-295.45759147 697.9344946 -296.26286509 695.82534278 -297.11703777 693.26282471 C-296.78703777 692.60282471 -296.45703777 691.94282471 -296.11703777 691.26282471 C-297.10703777 691.26282471 -298.09703777 691.26282471 -299.11703777 691.26282471 C-305.11703777 679.26282471 -305.11703777 679.26282471 -306.69125652 676.05188721 C-308.10097768 673.16214143 -308.10097768 673.16214143 -310.11703777 670.26282471 C-309.78703777 669.93282471 -309.45703777 669.60282471 -309.11703777 669.26282471 C-309.59141277 668.85032471 -310.06578777 668.43782471 -310.55453777 668.01282471 C-312.31603859 666.0399438 -312.48804218 664.77880708 -313.11703777 662.26282471 C-313.61203777 661.76782471 -314.10703777 661.27282471 -314.61703777 660.76282471 C-316.4096207 658.97024178 -316.56864162 657.69143625 -317.11703777 655.26282471 C-317.77703777 654.60282471 -318.43703777 653.94282471 -319.11703777 653.26282471 C-319.45037111 650.92949138 -319.78370444 648.59615805 -320.11703777 646.26282471 C-320.77703777 645.60282471 -321.43703777 644.94282471 -322.11703777 644.26282471 C-322.40844384 642.25536072 -322.69391485 640.24585103 -322.89828777 638.22766846 C-323.12678588 636.17526582 -323.59951231 634.25899435 -324.11703777 632.26282471 C-324.11703777 631.27282471 -324.11703777 630.28282471 -324.11703777 629.26282471 C-324.77703777 628.93282471 -325.43703777 628.60282471 -326.11703777 628.26282471 C-325.83860027 627.39657471 -325.83860027 627.39657471 -325.55453777 626.51282471 C-324.96197325 624.32886624 -324.96197325 624.32886624 -325.58359051 622.46594971 C-326.2208005 619.83428703 -326.22947737 617.47022452 -326.21469402 614.76282471 C-326.21147137 613.71094971 -326.20824871 612.65907471 -326.2049284 611.57532471 C-326.19654949 610.48219971 -326.18817059 609.38907471 -326.17953777 608.26282471 C-326.17502605 607.16969971 -326.17051434 606.07657471 -326.1658659 604.95032471 C-326.15715338 602.91906369 -326.14638705 600.8878097 -326.13290691 598.85657471 C-326.11945978 596.65869282 -326.11703777 594.46074775 -326.11703777 592.26282471 C-325.84140896 590.56891171 -325.52682861 588.88100957 -325.17953777 587.20032471 C-325.00551434 586.34309815 -324.8314909 585.48587159 -324.65219402 584.60266846 C-324.11703777 582.26282471 -324.11703777 582.26282471 -323.11703777 579.26282471 C-322.75212465 577.86976221 -322.39840798 576.47373024 -322.05453777 575.07532471 C-321.74516277 573.81719971 -321.43578777 572.55907471 -321.11703777 571.26282471 C-320.78703777 571.26282471 -320.45703777 571.26282471 -320.11703777 571.26282471 C-319.93527996 570.41397706 -319.93527996 570.41397706 -319.74985027 569.54798096 C-319.58227215 568.8145044 -319.41469402 568.08102784 -319.24203777 567.32532471 C-319.0796159 566.59442628 -318.91719402 565.86352784 -318.74985027 565.11048096 C-318.11703777 563.26282471 -318.11703777 563.26282471 -316.11703777 562.26282471 C-315.97266277 561.31407471 -315.82828777 560.36532471 -315.67953777 559.38782471 C-315.05666412 555.92741551 -314.51717549 555.56695692 -312.11703777 553.26282471 C-311.4367814 551.26740603 -310.7721328 549.2666448 -310.11703777 547.26282471 C-309.20873248 545.6084115 -308.29595269 543.95568717 -307.33188152 542.33313721 C-305.80759139 539.73547235 -304.36957131 537.09556618 -302.92953777 534.45032471 C-302.42035809 533.5157544 -301.9111784 532.58118409 -301.38656902 531.61829346 C-300.60984999 530.17718093 -299.84917134 528.72709185 -299.11703777 527.26282471 C-298.12703777 527.26282471 -297.13703777 527.26282471 -296.11703777 527.26282471 C-296.44703777 526.27282471 -296.77703777 525.28282471 -297.11703777 524.26282471 C-295.84307887 522.22449047 -294.50641855 520.22430345 -293.11703777 518.26282471 C-292.78703777 517.27282471 -292.45703777 516.28282471 -292.11703777 515.26282471 C-291.45703777 515.26282471 -290.79703777 515.26282471 -290.11703777 515.26282471 C-290.01391277 514.56157471 -289.91078777 513.86032471 -289.80453777 513.13782471 C-289.01610209 509.84073004 -287.70460103 507.25477086 -286.11703777 504.26282471 C-285.34360027 502.65407471 -285.34360027 502.65407471 -284.55453777 501.01282471 C-283.11703777 498.26282471 -283.11703777 498.26282471 -281.11703777 496.26282471 C-280.78703777 495.27282471 -280.45703777 494.28282471 -280.11703777 493.26282471 C-279.45703777 492.60282471 -278.79703777 491.94282471 -278.11703777 491.26282471 C-277.62203777 490.02532471 -277.62203777 490.02532471 -277.11703777 488.76282471 C-276.11703777 486.26282471 -276.11703777 486.26282471 -274.11703777 484.26282471 C-273.41198741 482.94938412 -272.75085341 481.61208376 -272.11703777 480.26282471 C-271.28622362 478.55326481 -270.45277991 476.84498092 -269.61703777 475.13782471 C-268.98281902 473.83458253 -268.98281902 473.83458253 -268.33578777 472.50501221 C-267.11703777 470.26282471 -267.11703777 470.26282471 -265.11703777 468.26282471 C-264.44262646 466.59927682 -263.77700568 464.93215529 -263.11703777 463.26282471 C-261.54677547 460.51486569 -259.87310887 457.89693137 -258.11703777 455.26282471 C-257.43217052 453.93874803 -256.76833575 452.60373231 -256.11703777 451.26282471 C-255.11703777 449.26282471 -254.11703777 447.26282471 -253.11703777 445.26282471 C-252.76641277 444.52032471 -252.41578777 443.77782471 -252.05453777 443.01282471 C-251.11703777 441.26282471 -251.11703777 441.26282471 -249.11703777 439.26282471 C-247.6371488 436.65125593 -246.74523396 434.19440694 -246.11703777 431.26282471 C-245.45703777 431.26282471 -244.79703777 431.26282471 -244.11703777 431.26282471 C-244.11703777 430.60282471 -244.11703777 429.94282471 -244.11703777 429.26282471 C-243.45703777 429.26282471 -242.79703777 429.26282471 -242.11703777 429.26282471 C-242.01391277 428.37594971 -241.91078777 427.48907471 -241.80453777 426.57532471 C-241.08902522 423.12785516 -240.01901977 421.18895086 -238.11703777 418.26282471 C-237.64266277 417.31407471 -237.16828777 416.36532471 -236.67953777 415.38782471 C-235.52708192 413.082913 -234.34006671 410.86607486 -233.05453777 408.63782471 C-231.17665695 405.48434542 -231.17665695 405.48434542 -230.05453777 402.95032471 C-229.11703777 401.26282471 -229.11703777 401.26282471 -226.11703777 399.26282471 C-226.11703777 398.27282471 -226.11703777 397.28282471 -226.11703777 396.26282471 C-225.15271701 394.57526338 -224.14387207 392.91309412 -223.11703777 391.26282471 C-221.73986331 388.61777535 -220.43181237 385.93933013 -219.11703777 383.26282471 C-218.11703777 381.26282471 -217.11703777 379.26282471 -216.11703777 377.26282471 C-215.12703777 377.26282471 -214.13703777 377.26282471 -213.11703777 377.26282471 C-213.61203777 375.77782471 -213.61203777 375.77782471 -214.11703777 374.26282471 C-213.17081618 372.8908034 -212.15819619 371.56427273 -211.11703777 370.26282471 C-210.09766834 368.27262725 -209.10241298 366.27007051 -208.11703777 364.26282471 C-207.16452533 362.50964964 -206.2055576 360.75997448 -205.24203777 359.01282471 C-202.75467976 354.48979311 -200.42868444 349.9120886 -198.19516277 345.25891846 C-197.11703777 343.26282471 -197.11703777 343.26282471 -195.11703777 341.26282471 C-192.32991867 336.94464818 -190.34295956 332.39041413 -188.30063152 327.68860596 C-187.11703777 325.26282471 -187.11703777 325.26282471 -185.11703777 323.26282471 C-183.92305594 321.09873264 -182.9977081 318.94958433 -182.11703777 316.63782471 C-181.11703777 314.26282471 -181.11703777 314.26282471 -179.11703777 312.26282471 C-177.48571987 309.74787628 -176.15783527 307.36601839 -175.05453777 304.57532471 C-174.11703777 302.26282471 -174.11703777 302.26282471 -172.11703777 300.26282471 C-171.43271058 298.60333126 -170.76880491 296.93537421 -170.11703777 295.26282471 C-169.14349992 293.37394964 -168.14249261 291.49902524 -167.11703777 289.63782471 C-166.60141277 288.69680909 -166.08578777 287.75579346 -165.55453777 286.78626221 C-164.48113328 284.90197062 -163.31995116 283.0671948 -162.11703777 281.26282471 C-161.78703777 280.60282471 -161.45703777 279.94282471 -161.11703777 279.26282471 C-160.45703777 279.26282471 -159.79703777 279.26282471 -159.11703777 279.26282471 C-158.93141277 278.11813721 -158.93141277 278.11813721 -158.74203777 276.95032471 C-158.11703777 274.26282471 -158.11703777 274.26282471 -156.11703777 271.26282471 C-155.43168383 269.93899988 -154.76553932 268.60508697 -154.11703777 267.26282471 C-153.81547771 266.64399415 -153.51391766 266.02516358 -153.20321941 265.38758057 C-152.89763103 264.75730958 -152.59204266 264.12703858 -152.27719402 263.47766846 C-151.57813872 262.05180707 -150.87891523 260.62602812 -150.17953777 259.20032471 C-149.65843426 258.1204126 -149.65843426 258.1204126 -149.1268034 257.01868409 C-148.7845573 256.32452393 -148.44231121 255.63036378 -148.08969402 254.91516846 C-147.78297771 254.2860254 -147.47626141 253.65688233 -147.16025066 253.00867432 C-146.11703777 251.26282471 -146.11703777 251.26282471 -144.55234051 249.70642823 C-142.4408752 247.5827517 -142.04216075 245.09261264 -141.11703777 242.26282471 C-139.06367294 238.43931777 -136.8231179 234.79603895 -134.49203777 231.13782471 C-132.67755709 228.26815372 -131.22617587 225.48940827 -130.11703777 222.26282471 C-129.12703777 222.26282471 -128.13703777 222.26282471 -127.11703777 222.26282471 C-127.19953777 221.54094971 -127.28203777 220.81907471 -127.36703777 220.07532471 C-127.03979605 216.39385533 -125.44844332 215.07422552 -123.11703777 212.26282471 C-121.91654371 209.16275271 -121.91654371 209.16275271 -121.11703777 206.26282471 C-120.78703777 205.60282471 -120.45703777 204.94282471 -120.11703777 204.26282471 C-119.45703777 204.26282471 -118.79703777 204.26282471 -118.11703777 204.26282471 C-118.01391277 203.56157471 -117.91078777 202.86032471 -117.80453777 202.13782471 C-117.02344775 198.87144824 -115.69645034 196.21563951 -114.11703777 193.26282471 C-113.12703777 193.26282471 -112.13703777 193.26282471 -111.11703777 193.26282471 C-111.44703777 192.27282471 -111.77703777 191.28282471 -112.11703777 190.26282471 C-111.1612672 188.89743818 -110.15350801 187.56800946 -109.11703777 186.26282471 C-108.44354616 184.59890426 -107.77612187 182.93250444 -107.11703777 181.26282471 C-106.45703777 180.60282471 -105.79703777 179.94282471 -105.11703777 179.26282471 C-104.41198741 177.94938412 -103.75085341 176.61208376 -103.11703777 175.26282471 C-102.28622362 173.55326481 -101.45277991 171.84498092 -100.61703777 170.13782471 C-100.19422527 169.26899659 -99.77141277 168.40016846 -99.33578777 167.50501221 C-98.11703777 165.26282471 -98.11703777 165.26282471 -96.11703777 163.26282471 C-95.44262646 161.59927682 -94.77700568 159.93215529 -94.11703777 158.26282471 C-92.54677547 155.51486569 -90.87310887 152.89693137 -89.11703777 150.26282471 C-88.43217052 148.93874803 -87.76833575 147.60373231 -87.11703777 146.26282471 C-86.11703777 144.26282471 -85.11703777 142.26282471 -84.11703777 140.26282471 C-83.76641277 139.52032471 -83.41578777 138.77782471 -83.05453777 138.01282471 C-82.11703777 136.26282471 -82.11703777 136.26282471 -80.11703777 134.26282471 C-79.78703777 133.43782471 -79.45703777 132.61282471 -79.11703777 131.76282471 C-78.11703777 129.26282471 -78.11703777 129.26282471 -76.11703777 127.26282471 C-75.68391277 125.87063721 -75.68391277 125.87063721 -75.24203777 124.45032471 C-74.03051799 121.01768533 -72.40768978 119.05455684 -70.11703777 116.26282471 C-69.41491884 114.61078016 -68.74732364 112.94358703 -68.11703777 111.26282471 C-67.12969237 109.58863033 -66.12891672 107.92230619 -65.11703777 106.26282471 C-64.60141277 105.21094971 -64.08578777 104.15907471 -63.55453777 103.07532471 C-62.11703777 100.26282471 -62.11703777 100.26282471 -60.11703777 98.26282471 C-59.78703777 97.27282471 -59.45703777 96.28282471 -59.11703777 95.26282471 C-58.45703777 95.26282471 -57.79703777 95.26282471 -57.11703777 95.26282471 C-57.01391277 94.56157471 -56.91078777 93.86032471 -56.80453777 93.13782471 C-56.01610394 89.84073778 -54.66840595 87.27774777 -53.11703777 84.26282471 C-52.58723309 83.20321534 -52.0574284 82.14360596 -51.51156902 81.05188721 C-49.3143034 76.65735596 -49.3143034 76.65735596 -47.11703777 72.26282471 C-46.12703777 72.26282471 -45.13703777 72.26282471 -44.11703777 72.26282471 C-44.44703777 71.27282471 -44.77703777 70.28282471 -45.11703777 69.26282471 C-43.84345046 67.55006936 -42.502807 65.88615438 -41.11703777 64.26282471 C-39.96753618 62.21926633 -39.10378278 60.22745741 -38.28110027 58.03235596 C-36.9443137 54.85188053 -35.33951769 51.93911931 -33.61703777 48.95032471 C-33.00860027 47.8816919 -32.40016277 46.81305909 -31.77328777 45.71204346 C-31.22672527 44.90380128 -30.68016277 44.09555909 -30.11703777 43.26282471 C-29.45703777 43.26282471 -28.79703777 43.26282471 -28.11703777 43.26282471 C-28.44703777 42.27282471 -28.77703777 41.28282471 -29.11703777 40.26282471 C-27.84345046 38.55006936 -26.502807 36.88615438 -25.11703777 35.26282471 C-22.9240547 31.21760096 -21.18660045 26.9332325 -19.33578777 22.72376221 C-18.11703777 20.26282471 -18.11703777 20.26282471 -16.11703777 18.26282471 C-15.41766245 16.94635353 -14.74974644 15.6126032 -14.11703777 14.26282471 C-13.78703777 13.60282471 -13.45703777 12.94282471 -13.11703777 12.26282471 C-12.80766277 11.60282471 -12.49828777 10.94282471 -12.17953777 10.26282471 C-11.11703777 8.26282471 -11.11703777 8.26282471 -9.11703777 6.26282471 C-8.78703777 5.60282471 -8.45703777 4.94282471 -8.11703777 4.26282471 C-6.09312389 0.21499696 -4.31635536 0.03050753 0 0 Z M-52.11703777 438.26282471 C-51.11703777 440.26282471 -51.11703777 440.26282471 -51.11703777 440.26282471 Z M-324.11703777 585.26282471 C-323.11703777 588.26282471 -323.11703777 588.26282471 -323.11703777 588.26282471 Z " fill="#FEFEFE" transform="translate(1048.1170377731323,386.7371752858162)"/>
<path d="M0 0 C1.0961194 4.22788911 1.35298826 7.8282862 0 12 C-0.96113866 13.36161311 -1.95884159 14.69855198 -3 16 C-3.33 16.99 -3.66 17.98 -4 19 C-4.99 20.485 -4.99 20.485 -6 22 C-7.48717095 24.98284001 -8.92808343 27.98589157 -10.3671875 30.9921875 C-11.98662146 33.97535532 -13.82779906 36.40240971 -16 39 C-17.14202019 41.03025811 -18.00168112 43.0045261 -18.8125 45.1875 C-20.55173433 49.3067392 -22.78946169 53.11824146 -25 57 C-25.36609375 57.65871094 -25.7321875 58.31742187 -26.109375 58.99609375 C-27.49416438 61.47273629 -28.86662924 63.83072172 -30.625 66.0625 C-32.39222772 68.55268452 -33.11529082 71.0930984 -34 74 C-34.33 74.66 -34.66 75.32 -35 76 C-35.66 76 -36.32 76 -37 76 C-37.37125 77.2684375 -37.37125 77.2684375 -37.75 78.5625 C-39.14456397 82.39755092 -40.92067165 85.49113341 -43 89 C-43.350625 89.78375 -43.70125 90.5675 -44.0625 91.375 C-45 93 -45 93 -48 94 C-47.938125 94.763125 -47.87625 95.52625 -47.8125 96.3125 C-48.03701008 99.53047788 -48.66574212 99.93507957 -51 102 C-52.16639514 104.05834436 -53.03770381 106.09964579 -53.875 108.3125 C-55.30845972 111.73687599 -57.13198417 114.7893478 -59 118 C-59.350625 118.7425 -59.70125 119.485 -60.0625 120.25 C-61.1167257 122.21788798 -62.42799648 123.42799648 -64 125 C-65.15840888 127.04425096 -66.03109245 129.08078485 -66.875 131.2734375 C-68.08113272 134.19663416 -69.45437222 136.95734209 -70.9375 139.75 C-71.44152344 140.71421875 -71.94554687 141.6784375 -72.46484375 142.671875 C-74 145 -74 145 -77 146 C-76.67 146.99 -76.34 147.98 -76 149 C-77.27358732 150.71275535 -78.61423077 152.37667033 -80 154 C-81.19539958 156.12515481 -82.09402008 158.23505019 -83 160.5 C-84.66464278 164.66160695 -86.80978294 168.5585801 -88.9375 172.5 C-89.69353516 173.90765625 -89.69353516 173.90765625 -90.46484375 175.34375 C-91.8385376 177.72062486 -93.33287308 179.82610438 -95 182 C-95.350625 182.721875 -95.70125 183.44375 -96.0625 184.1875 C-97 186 -97 186 -99 187 C-99.65555119 189.52733235 -99.65555119 189.52733235 -100 192 C-100.66 192 -101.32 192 -102 192 C-102.1546875 193.0828125 -102.1546875 193.0828125 -102.3125 194.1875 C-103.06793947 197.27793421 -104.15531315 199.41743841 -106 202 C-106.66 202 -107.32 202 -108 202 C-108.33 202.66 -108.66 203.32 -109 204 C-112 206 -112 206 -114.8125 206.0625 C-120.34319228 204.21893591 -122.99450501 199.86202775 -125.6875 194.875 C-126.120625 193.92625 -126.55375 192.9775 -127 192 C-127.5775 191.0925 -128.155 190.185 -128.75 189.25 C-129.1625 188.5075 -129.575 187.765 -130 187 C-129.67 186.34 -129.34 185.68 -129 185 C-129.99 184.67 -130.98 184.34 -132 184 C-133.015625 182.25390625 -133.015625 182.25390625 -134 180 C-134.90997066 178.30887983 -135.82728605 176.621701 -136.75 174.9375 C-137.27207031 173.9784375 -137.79414062 173.019375 -138.33203125 172.03125 C-139.46010366 169.98116992 -140.6038201 167.939633 -141.76171875 165.90625 C-142.31472656 164.9265625 -142.86773438 163.946875 -143.4375 162.9375 C-143.95183594 162.03902344 -144.46617187 161.14054688 -144.99609375 160.21484375 C-145.32738281 159.48394531 -145.65867187 158.75304687 -146 158 C-145.67 157.34 -145.34 156.68 -145 156 C-145.9590625 155.62875 -145.9590625 155.62875 -146.9375 155.25 C-149 154 -149 154 -149.625 152.125 C-149.74875 151.42375 -149.8725 150.7225 -150 150 C-150.92816862 147.81217397 -151.70713429 146.28006284 -153.4296875 144.6328125 C-155.14945647 142.84459502 -156.1411424 141.15107768 -157.25 138.9375 C-157.60578125 138.24527344 -157.9615625 137.55304688 -158.328125 136.83984375 C-158.54984375 136.23269531 -158.7715625 135.62554688 -159 135 C-158.67 134.34 -158.34 133.68 -158 133 C-158.99 132.67 -159.98 132.34 -161 132 C-161.35412344 130.67203709 -161.68521554 129.33783393 -162 128 C-162.474375 127.525625 -162.94875 127.05125 -163.4375 126.5625 C-165.86410325 124.13589675 -166.76791292 121.27647891 -167.375 117.9375 C-167.88481893 115.83604607 -167.88481893 115.83604607 -169.8125 114.25 C-172.31619061 111.67477537 -173.53992351 109.16685111 -175.0625 105.94921875 C-176.2235031 103.53529981 -177.61366259 101.29047051 -179 99 C-180.01691264 97.00854609 -181.01642648 95.00812926 -182 93 C-183.54711624 89.84388287 -185.04861672 86.92707492 -187 84 C-187 83.01 -187 82.02 -187 81 C-187.99 80.67 -188.98 80.34 -190 80 C-191.0625 77.625 -191.0625 77.625 -192 75 C-192.66 74.01 -193.32 73.02 -194 72 C-193.67 71.34 -193.34 70.68 -193 70 C-193.66 70 -194.32 70 -195 70 C-196.2890625 68.35546875 -196.2890625 68.35546875 -197.625 66.1875 C-198.07101562 65.47980469 -198.51703125 64.77210938 -198.9765625 64.04296875 C-200 62 -200 62 -200 59 C-200.97455242 57.97518413 -201.97829491 56.97781323 -203 56 C-204.16796875 54.02734375 -204.16796875 54.02734375 -205.1875 51.9375 C-205.53167969 51.24527344 -205.87585938 50.55304688 -206.23046875 49.83984375 C-207 48 -207 48 -207 46 C-207.66 45.67 -208.32 45.34 -209 45 C-209.96484375 43.29296875 -209.96484375 43.29296875 -210.9375 41.1875 C-212.08555733 38.77958949 -213.13183538 36.82578896 -214.75 34.6875 C-216 33 -216 33 -216 30 C-217.43750191 28.31201173 -217.43750191 28.31201173 -219 27 C-218.67 26.01 -218.34 25.02 -218 24 C-218.99 24 -219.98 24 -221 24 C-221.28875 23.030625 -221.5775 22.06125 -221.875 21.0625 C-222.64214682 17.89335797 -222.64214682 17.89335797 -225 17 C-226.0703125 15.2578125 -226.0703125 15.2578125 -227.125 13.125 C-227.47820312 12.42632812 -227.83140625 11.72765625 -228.1953125 11.0078125 C-229 9 -229 9 -229 6 C-229.66 6 -230.32 6 -231 6 C-231.38063221 3.6739143 -231.71269945 1.33944736 -232 -1 C-229.8993341 -3.1006659 -225.23496464 -2.16835433 -222.33355713 -2.17840576 C-221.4133477 -2.18546044 -220.49313827 -2.19251511 -219.54504371 -2.19978356 C-216.43661714 -2.22231001 -213.32819642 -2.23761129 -210.21972656 -2.25292969 C-208.00111642 -2.26740934 -205.78250883 -2.28228565 -203.56390381 -2.29753113 C-197.5183887 -2.3375291 -191.47285481 -2.37081691 -185.42728901 -2.40211773 C-181.65374779 -2.42180653 -177.88021475 -2.44265918 -174.10668182 -2.46387482 C-163.6633739 -2.52231332 -153.22006004 -2.57900729 -142.7767067 -2.62871933 C-142.10781948 -2.63190651 -141.43893227 -2.63509368 -140.74977575 -2.63837744 C-139.74400648 -2.64316728 -139.74400648 -2.64316728 -138.71791863 -2.64805388 C-137.35914626 -2.65452625 -136.0003739 -2.66100178 -134.64160156 -2.66748047 C-133.96759968 -2.67069251 -133.29359779 -2.67390456 -132.59917161 -2.67721394 C-121.68056991 -2.72961003 -110.76209576 -2.79557334 -99.84360626 -2.86739931 C-88.63952664 -2.94090946 -77.43542849 -3.00283422 -66.23122001 -3.05390286 C-59.93819587 -3.08283959 -53.64528921 -3.1167143 -47.35236359 -3.16255951 C-41.43290726 -3.20535625 -35.51355509 -3.23383281 -29.59397125 -3.25121498 C-27.4190902 -3.26007879 -25.2442233 -3.27412942 -23.06941223 -3.29369926 C-20.10426087 -3.31958904 -17.13962731 -3.32692119 -14.17437744 -3.32952881 C-13.31026945 -3.34147616 -12.44616147 -3.35342351 -11.55586839 -3.36573291 C-6.92771327 -3.34768448 -3.68149325 -3.14087584 0 0 Z " fill="#FEFEFE" transform="translate(699,392)"/>
<path d="M0 0 C4.27520224 3.51214659 7.54717993 8.60230879 9.625 13.6875 C10.82105412 16.95472803 10.82105412 16.95472803 12.6875 19.25 C14 21 14 21 14 24 C14.99 24.66 15.98 25.32 17 26 C18.53515625 28.42578125 18.53515625 28.42578125 20.0625 31.3125 C20.56910156 32.25738281 21.07570313 33.20226562 21.59765625 34.17578125 C22.87503774 36.74833507 23.96747566 39.32189 25 42 C26.09919197 44.34494287 27.28312843 46.44042201 28.6875 48.625 C29.120625 49.40875 29.55375 50.1925 30 51 C29.67 51.66 29.34 52.32 29 53 C29.99 53 30.98 53 32 53 C33.15143825 55.0804054 34.29624112 57.16401997 35.4375 59.25 C35.76298828 59.83652344 36.08847656 60.42304687 36.42382812 61.02734375 C38.04283326 63.99830162 39.27517545 66.69973503 40 70 C40.97850195 71.02104551 41.97980427 72.0206121 43 73 C44.30648871 75.3226466 45.15307428 77.45922283 46 80 C45.67 80.66 45.34 81.32 45 82 C45.99 82 46.98 82 48 82 C49.45909711 84.74959541 50.91714242 87.49974721 52.375 90.25 C52.7875 91.02730469 53.2 91.80460937 53.625 92.60546875 C54.02460937 93.35957031 54.42421875 94.11367187 54.8359375 94.890625 C55.20251465 95.58188477 55.5690918 96.27314453 55.94677734 96.98535156 C56.29434082 97.65018555 56.6419043 98.31501953 57 99 C57.59288818 100.05525879 57.59288818 100.05525879 58.19775391 101.13183594 C58.46249512 101.74833008 58.72723633 102.36482422 59 103 C58.67 103.66 58.34 104.32 58 105 C58.60972656 105.23589844 59.21945312 105.47179688 59.84765625 105.71484375 C62.55120889 107.32912473 63.14940931 108.71443788 64.4375 111.5625 C66.08124963 115.05736461 67.75755813 118.49341607 69.625 121.875 C70.00914062 122.57367187 70.39328125 123.27234375 70.7890625 123.9921875 C71.99482201 126.07084621 71.99482201 126.07084621 73.6171875 128.13671875 C75.11815333 130.15920661 75.41365624 131.58133198 76 134 C76.97473812 135.68156575 77.97893162 137.34615685 79 139 C80.04203328 140.72894576 81.08370342 142.45811045 82.125 144.1875 C82.64320313 145.04730469 83.16140625 145.90710937 83.6953125 146.79296875 C84.50900783 148.16942941 85.28491343 149.56982685 86 151 C86.40476562 151.6909375 86.80953125 152.381875 87.2265625 153.09375 C87.68804688 153.8878125 88.14953125 154.681875 88.625 155.5 C89.32496094 156.69109375 89.32496094 156.69109375 90.0390625 157.90625 C90.35617187 158.5971875 90.67328125 159.288125 91 160 C90.67 160.66 90.34 161.32 90 162 C90.99 162.33 91.98 162.66 93 163 C93 164.65 93 166.3 93 168 C94.32 168.66 95.64 169.32 97 170 C97 170.99 97 171.98 97 173 C97.98661888 174.01320442 98.98957816 175.01053161 100 176 C101.09060356 177.82581142 102.12912195 179.68334317 103.125 181.5625 C103.64320313 182.53316406 104.16140625 183.50382812 104.6953125 184.50390625 C105.47544804 185.99644102 106.24683714 187.49367427 107 189 C106.67 189.66 106.34 190.32 106 191 C106.9590625 191.37125 106.9590625 191.37125 107.9375 191.75 C110 193 110 193 110.625 194.875 C110.74875 195.57625 110.8725 196.2775 111 197 C112.12780672 199.5563619 113.00166497 201.00166497 115 203 C115 203.99 115 204.98 115 206 C111.63908825 207.68045587 107.83874371 207.15409708 104.14169312 207.15821838 C103.21301788 207.16315636 102.28434264 207.16809434 101.32752573 207.17318195 C98.19670523 207.18861464 95.06590532 207.19693315 91.93505859 207.20532227 C89.69833696 207.21489626 87.46161716 207.22490605 85.22489929 207.23532104 C79.13638058 207.26242808 73.04785406 207.28340618 66.95930815 207.30332303 C60.60246569 207.32514691 54.24564742 207.35255315 47.88882446 207.37937927 C37.21397917 207.42367046 26.53912623 207.46449745 15.86425781 207.50268555 C4.86782869 207.54203344 -6.12858937 207.58345797 -17.125 207.62768555 C-18.14128382 207.63177196 -18.14128382 207.63177196 -19.17809863 207.63594092 C-22.57694168 207.64962028 -25.97578456 207.66334058 -29.37462735 207.67708123 C-57.58306186 207.79106773 -85.79152052 207.89779872 -114 208 C-114 207.34 -114 206.68 -114 206 C-114.66 206 -115.32 206 -116 206 C-118.14702862 204.36825825 -118.93464349 203.19104212 -119.8125 200.625 C-120.03578841 197.49896219 -119.42252752 195.77018517 -118 193 C-117.01 192.01 -117.01 192.01 -116 191 C-114.40221239 188.10400996 -113.19768722 185.07976714 -112 182 C-111.01 182 -110.02 182 -109 182 C-109.33 181.01 -109.66 180.02 -110 179 C-108.69864875 177.30824337 -107.36244796 175.64295195 -106 174 C-105.22166466 171.81785432 -105.22166466 171.81785432 -105 170 C-104.34 170 -103.68 170 -103 170 C-102.814375 168.88625 -102.814375 168.88625 -102.625 167.75 C-102.03090836 165.13599678 -101.23986445 163.35312302 -100 161 C-99.43152344 159.91912109 -99.43152344 159.91912109 -98.8515625 158.81640625 C-96.52043824 154.53277983 -94.06473923 150.80450387 -91 147 C-90.29289322 145.35008418 -89.62056011 143.68437744 -89 142 C-88.34 141.01 -87.68 140.02 -87 139 C-85.83840984 136.82201844 -84.87984428 134.68459124 -84 132.375 C-83 130 -83 130 -81 128 C-80.505 126.515 -80.505 126.515 -80 125 C-79.34 124.34 -78.68 123.68 -78 123 C-75.90564616 119.77120449 -74.37864614 116.58447997 -73 113 C-71.99231777 110.7830991 -70.99388178 108.9920973 -69.5 107.0625 C-67.848638 104.79187726 -66.98318018 102.62181382 -66 100 C-64.83142059 97.44373253 -64.01070731 96.01070731 -62 94 C-61.67 93.175 -61.34 92.35 -61 91.5 C-60 89 -60 89 -58 87 C-57.505 85.515 -57.505 85.515 -57 84 C-56.34 84 -55.68 84 -55 84 C-54.814375 82.8553125 -54.814375 82.8553125 -54.625 81.6875 C-54 79 -54 79 -52 76 C-51.31513275 74.67592331 -50.65129797 73.34090759 -50 72 C-48.06608497 68.0354742 -46.02493693 64.13537531 -43.9375 60.25 C-43.43089844 59.30640625 -42.92429687 58.3628125 -42.40234375 57.390625 C-41 55 -41 55 -39 53 C-38.71125 52.071875 -38.4225 51.14375 -38.125 50.1875 C-36.91348022 46.75486061 -35.290652 44.79173213 -33 42 C-32.30959426 40.34302621 -31.6469365 38.6744239 -31 37 C-29.01436652 33.15972969 -27.03223004 29.35022756 -24.40234375 25.91015625 C-22.81298982 23.94982839 -22.81298982 23.94982839 -22 21 C-21.34 21 -20.68 21 -20 21 C-20.495 19.515 -20.495 19.515 -21 18 C-19.6875 16.0625 -19.6875 16.0625 -18 14 C-16.96342529 12.04880054 -16.03419158 10.07570993 -15.125 8.0625 C-11.47773664 1.37585051 -7.73717325 -1.28697535 0 0 Z " fill="#FEFEFE" transform="translate(979,966)"/>
<path d="M0 0 C73.92 0 147.84 0 224 0 C224 0.33 224 0.66 224 1 C150.08 1 76.16 1 0 1 C0 0.67 0 0.34 0 0 Z " fill="#FFFFFF" transform="translate(867,1174)"/>
<path d="M0 0 C62.04 0 124.08 0 188 0 C188 0.33 188 0.66 188 1 C125.96 1 63.92 1 0 1 C0 0.67 0 0.34 0 0 Z " fill="#FFFFFF" transform="translate(335,1174)"/>
<path d="M0 0 C0.33 0 0.66 0 1 0 C1 1.65 1 3.3 1 5 C0.67 5 0.34 5 0 5 C0 3.35 0 1.7 0 0 Z " fill="#FFFFFF" transform="translate(836,572)"/>
<path d="M0 0 C0.33 0 0.66 0 1 0 C1 1.65 1 3.3 1 5 C0.67 5 0.34 5 0 5 C0 3.35 0 1.7 0 0 Z " fill="#FFFFFF" transform="translate(836,548)"/>
<path d="" fill="#FFFFFF" transform="translate(0,0)"/>
<path d="" fill="#FFFFFF" transform="translate(0,0)"/>
<path d="" fill="#FFFFFF" transform="translate(0,0)"/>
<path d="" fill="#FFFFFF" transform="translate(0,0)"/>
<path d="" fill="#FFFFFF" transform="translate(0,0)"/>
<path d="" fill="#FFFFFF" transform="translate(0,0)"/>
<path d="" fill="#FFFFFF" transform="translate(0,0)"/>
<path d="" fill="#FFFFFF" transform="translate(0,0)"/>
<path d="" fill="#FFFFFF" transform="translate(0,0)"/>
<path d="" fill="#FFFFFF" transform="translate(0,0)"/>
<path d="" fill="#FFFFFF" transform="translate(0,0)"/>
<path d="" fill="#FFFFFF" transform="translate(0,0)"/>
<path d="" fill="#FFFFFF" transform="translate(0,0)"/>
<path d="" fill="#FFFFFF" transform="translate(0,0)"/>
<path d="" fill="#FFFFFF" transform="translate(0,0)"/>
<path d="" fill="#FFFFFF" transform="translate(0,0)"/>
<path d="" fill="#FFFFFF" transform="translate(0,0)"/>
<path d="" fill="#FFFFFF" transform="translate(0,0)"/>
<path d="" fill="#FFFFFF" transform="translate(0,0)"/>
<path d="" fill="#FFFFFF" transform="translate(0,0)"/>
<path d="" fill="#FFFFFF" transform="translate(0,0)"/>
<path d="" fill="#FFFFFF" transform="translate(0,0)"/>
<path d="" fill="#FFFFFF" transform="translate(0,0)"/>
<path d="" fill="#FFFFFF" transform="translate(0,0)"/>
<path d="" fill="#FFFFFF" transform="translate(0,0)"/>
<path d="" fill="#FFFFFF" transform="translate(0,0)"/>
<path d="" fill="#FFFFFF" transform="translate(0,0)"/>
<path d="" fill="#FFFFFF" transform="translate(0,0)"/>
<path d="" fill="#FFFFFF" transform="translate(0,0)"/>
<path d="" fill="#FFFFFF" transform="translate(0,0)"/>
<path d="" fill="#FFFFFF" transform="translate(0,0)"/>
<path d="" fill="#FFFFFF" transform="translate(0,0)"/>
<path d="" fill="#FFFFFF" transform="translate(0,0)"/>
<path d="" fill="#FFFFFF" transform="translate(0,0)"/>
<path d="" fill="#FFFFFF" transform="translate(0,0)"/>
<path d="" fill="#FFFFFF" transform="translate(0,0)"/>
<path d="" fill="#FFFFFF" transform="translate(0,0)"/>
<path d="" fill="#FFFFFF" transform="translate(0,0)"/>
<path d="" fill="#FFFFFF" transform="translate(0,0)"/>
<path d="" fill="#FFFFFF" transform="translate(0,0)"/>
<path d="" fill="#FFFFFF" transform="translate(0,0)"/>
<path d="" fill="#FFFFFF" transform="translate(0,0)"/>
<path d="" fill="#FFFFFF" transform="translate(0,0)"/>
<path d="" fill="#FFFFFF" transform="translate(0,0)"/>
<path d="" fill="#FFFFFF" transform="translate(0,0)"/>
<path d="" fill="#FFFFFF" transform="translate(0,0)"/>
<path d="" fill="#FFFFFF" transform="translate(0,0)"/>
<path d="" fill="#FFFFFF" transform="translate(0,0)"/>
<path d="" fill="#FFFFFF" transform="translate(0,0)"/>
<path d="" fill="#FFFFFF" transform="translate(0,0)"/>
<path d="" fill="#FFFFFF" transform="translate(0,0)"/>
<path d="" fill="#FFFFFF" transform="translate(0,0)"/>
<path d="" fill="#FFFFFF" transform="translate(0,0)"/>
<path d="" fill="#FFFFFF" transform="translate(0,0)"/>
<path d="" fill="#FFFFFF" transform="translate(0,0)"/>
<path d="" fill="#FFFFFF" transform="translate(0,0)"/>
<path d="" fill="#FFFFFF" transform="translate(0,0)"/>
<path d="" fill="#FFFFFF" transform="translate(0,0)"/>
<path d="" fill="#FFFFFF" transform="translate(0,0)"/>
<path d="" fill="#FFFFFF" transform="translate(0,0)"/>
<path d="" fill="#FFFFFF" transform="translate(0,0)"/>
<path d="" fill="#FFFFFF" transform="translate(0,0)"/>
<path d="" fill="#FFFFFF" transform="translate(0,0)"/>
<path d="" fill="#FFFFFF" transform="translate(0,0)"/>
<path d="" fill="#FFFFFF" transform="translate(0,0)"/>
<path d="" fill="#FFFFFF" transform="translate(0,0)"/>
<path d="" fill="#FFFFFF" transform="translate(0,0)"/>
<path d="" fill="#FFFFFF" transform="translate(0,0)"/>
<path d="" fill="#FFFFFF" transform="translate(0,0)"/>
<path d="" fill="#FFFFFF" transform="translate(0,0)"/>
<path d="" fill="#FFFFFF" transform="translate(0,0)"/>
<path d="" fill="#FFFFFF" transform="translate(0,0)"/>
<path d="" fill="#FFFFFF" transform="translate(0,0)"/>
<path d="" fill="#FFFFFF" transform="translate(0,0)"/>
<path d="" fill="#FFFFFF" transform="translate(0,0)"/>
<path d="" fill="#FFFFFF" transform="translate(0,0)"/>
<path d="" fill="#FFFFFF" transform="translate(0,0)"/>
<path d="" fill="#FFFFFF" transform="translate(0,0)"/>
<path d="" fill="#FFFFFF" transform="translate(0,0)"/>
<path d="" fill="#FFFFFF" transform="translate(0,0)"/>
<path d="" fill="#FFFFFF" transform="translate(0,0)"/>
<path d="" fill="#FFFFFF" transform="translate(0,0)"/>
<path d="" fill="#FFFFFF" transform="translate(0,0)"/>
<path d="" fill="#FFFFFF" transform="translate(0,0)"/>
<path d="" fill="#FFFFFF" transform="translate(0,0)"/>
<path d="" fill="#FFFFFF" transform="translate(0,0)"/>
<path d="" fill="#FFFFFF" transform="translate(0,0)"/>
<path d="" fill="#FFFFFF" transform="translate(0,0)"/>
<path d="" fill="#FFFFFF" transform="translate(0,0)"/>
<path d="" fill="#FFFFFF" transform="translate(0,0)"/>
<path d="" fill="#FFFFFF" transform="translate(0,0)"/>
<path d="" fill="#FFFFFF" transform="translate(0,0)"/>
<path d="" fill="#FFFFFF" transform="translate(0,0)"/>
<path d="" fill="#FFFFFF" transform="translate(0,0)"/>
<path d="" fill="#FFFFFF" transform="translate(0,0)"/>
<path d="" fill="#FFFFFF" transform="translate(0,0)"/>
<path d="" fill="#FFFFFF" transform="translate(0,0)"/>
<path d="" fill="#FFFFFF" transform="translate(0,0)"/>
<path d="" fill="#FFFFFF" transform="translate(0,0)"/>
<path d="" fill="#FFFFFF" transform="translate(0,0)"/>
<path d="" fill="#FFFFFF" transform="translate(0,0)"/>
<path d="" fill="#FFFFFF" transform="translate(0,0)"/>
<path d="" fill="#FFFFFF" transform="translate(0,0)"/>
</svg>